<svg width="226" height="100" viewBox="0 0 226 100" fill="none" xmlns="http://www.w3.org/2000/svg">
<g opacity="0.2">
<path d="M45.7266 0H59.4019V59.1428H65.9546V74.7143H59.4019V98.7143H37.8918V74.7143H0V59.1428L45.7266 0ZM17.0941 59.1428H37.8918V32.5714L17.0941 59.1428Z" fill="#00AECD"/>
<path d="M146.405 49.5714C146.405 68.0476 142.891 81.3809 135.863 89.5714C129.785 96.5238 122.473 100 113.926 100C104.239 100 96.4045 96.1429 90.4216 88.4286C83.8689 80.0476 80.5925 67.2381 80.5925 50C80.5925 34.381 83.2041 22.5714 88.4273 14.5714C94.5052 4.85714 102.91 0 113.641 0C119.434 0 124.752 1.71429 129.595 5.14286C132.729 7.2381 135.531 10 138 13.4286C143.603 21.4286 146.405 33.4762 146.405 49.5714ZM124.04 49C124.04 37.8571 123.185 29.9524 121.476 25.2857C119.861 20.619 117.25 18.2857 113.641 18.2857C109.652 18.2857 106.898 20.9048 105.379 26.1429C103.859 31.2857 103.1 39.5714 103.1 51V56.8571C103.48 64 103.907 68.4762 104.382 70.2857C106.376 78.4762 109.462 82.3333 113.641 81.8571C118.294 81.8571 121.333 78 122.758 70.2857C123.613 65.0476 124.04 57.9524 124.04 49Z" fill="#00AECD"/>
<path d="M205.772 0H219.447V59.1428H226V74.7143H219.447V98.7143H197.937V74.7143H160.045V59.1428L205.772 0ZM177.139 59.1428H197.937V32.5714L177.139 59.1428Z" fill="#00AECD"/>
</g>
</svg>
