<?xml version="1.0" encoding="utf-8"?>
<!-- Generator: Adobe Illustrator 24.2.3, SVG Export Plug-In . SVG Version: 6.00 Build 0)  -->
<svg version="1.1" id="Слой_1" xmlns="http://www.w3.org/2000/svg" xmlns:xlink="http://www.w3.org/1999/xlink" x="0px" y="0px"
	 width="373px" height="348px" viewBox="0 0 373 348" enable-background="new 0 0 373 348" xml:space="preserve">
<g opacity="0.1">
	<path fill="#00AECD" d="M127.1,314.8c-21.2-4.6-40.3-12-58.8-19.2c-7.9-3.1-16.1-6.2-24.3-9.1c-4.2-1.5-8.7-2.3-13.2-2.4
		c-4.1-0.1-8.2,0.8-12.1,2.4s-7.2,4-10,7c-4.3,4.6-7.2,10.4-8.3,16.7c-1.1,6.2-0.4,12.6,2.1,18.5C8,341,20.5,348,36.8,348h52.9
		v-15.7H36.8c-9.9,0-16.9-3.5-19.7-9.8c-1.2-3-1.6-6.3-1-9.5c0.6-3.2,2-6.2,4.2-8.6c4.4-4.7,10.7-5.7,18.4-3c8,2.8,16.1,5.9,23.9,9
		c19,7.3,38.7,14.9,61.1,19.8c18.2,4.1,37.2,3.7,55.2-1.2v-16.5C162.3,317.9,144.3,318.7,127.1,314.8z"/>
	<path fill="#00AECD" d="M50.9,273.8c10.3,3.7,18.9,7.3,27.2,10.7c16.2,6.6,30.2,12.4,50.3,17.1c20.8,4.9,37.8,1.8,50.6-3.4v-17.5
		c-10.6,5.7-26.5,10.4-46.9,5.6c-18.9-4.5-32.3-10-47.9-16.3c-8.5-3.4-17.2-7.1-27.8-10.9c-10.3-3.7-21.2-5.7-32.2-5.8
		c-5.8-0.1-11.5,0.7-17.1,2.2v16.8C18.7,266.6,37.9,269.1,50.9,273.8z"/>
	<path fill="#00AECD" d="M47.9,241.9c10.3,3.7,18.9,7.3,27.2,10.7c16.2,6.6,30.2,12.4,50.3,17.1c20.8,4.9,37.8,1.8,50.6-3.4v-17.5
		c-10.6,5.7-26.5,10.4-46.9,5.6c-18.9-4.5-32.3-10-47.9-16.3c-8.5-3.4-17.2-7.1-27.8-10.9c-10.3-3.7-21.2-5.7-32.2-5.8
		c-5.8-0.1-11.5,0.7-17.1,2.2v16.8C15.7,234.7,34.9,237.2,47.9,241.9z"/>
	<path fill="#00AECD" d="M48.9,211c10.3,3.7,18.9,7.3,27.2,10.7c16.2,6.6,30.2,12.4,50.3,17.1c20.8,4.9,37.8,1.8,50.6-3.4v-17.5
		c-10.6,5.7-26.5,10.4-46.9,5.6c-18.9-4.5-32.3-10-47.9-16.3c-8.5-3.4-17.2-7.1-27.8-10.9c-10.3-3.7-21.2-5.7-32.2-5.8
		c-5.8-0.1-11.5,0.7-17.1,2.2v16.8C16.7,203.8,35.9,206.3,48.9,211z"/>
	<path fill="#00AECD" d="M48.9,179.1c10.3,3.7,18.9,7.3,27.2,10.7c16.2,6.6,30.2,12.4,50.3,17.1c20.8,4.9,37.8,1.8,50.6-3.4V186
		c-10.6,5.7-26.5,10.4-46.9,5.6c-18.9-4.5-32.3-10-47.9-16.3c-8.5-3.4-17.2-7.1-27.8-10.9c-10.3-3.7-21.2-5.7-32.2-5.8
		c-5.8-0.1-11.5,0.7-17.1,2.2v16.8C16.7,171.9,35.9,174.4,48.9,179.1z"/>
	<path fill="#00AECD" d="M48.9,147.2c10.3,3.7,18.9,7.3,27.2,10.7c16.2,6.6,30.2,12.4,50.3,17.1c20.8,4.9,37.8,1.8,50.6-3.4v-17.5
		c-10.6,5.7-26.5,10.4-46.9,5.6c-18.9-4.5-32.3-10-47.9-16.3c-8.5-3.4-17.2-7.1-27.8-10.9c-10.3-3.7-21.2-5.7-32.2-5.8
		c-5.8-0.1-11.5,0.7-17.1,2.2v16.8C16.7,140,35.9,142.5,48.9,147.2z"/>
	<path fill="#00AECD" d="M48.9,115.3c10.3,3.7,18.9,7.3,27.2,10.7c16.2,6.6,30.2,12.4,50.3,17.1c20.8,4.9,37.8,1.8,50.6-3.4v-17.5
		c-10.6,5.7-26.5,10.4-46.9,5.6c-18.9-4.5-32.3-10-47.9-16.3c-8.5-3.4-17.2-7.1-27.8-10.9c-10.3-3.7-21.2-5.7-32.2-5.8
		c-5.8-0.1-11.5,0.7-17.1,2.2v16.8C16.7,108.1,35.9,110.6,48.9,115.3z"/>
	<path fill="#00AECD" d="M13.1,80c8.3-1.1,22-1.1,39.7,5.1c10.3,3.6,19,6.9,27.4,10.1c15.8,6,30.6,11.7,52.6,17.6
		c23.8,6.4,36.5-4.4,40.8-9.4c3.8-4.3,6.2-9.6,7.1-15.3c0.8-5.6,0-11.4-2.4-16.6c-2.7-5.6-11.4-18.6-34.8-18.6H95.1v15.4h48.3
		c10.2,0,17.5,3.4,20.5,9.6c1.2,2.5,1.5,5.3,1.1,8c-0.4,2.7-1.6,5.3-3.5,7.4c-5,5.7-13.9,7.4-24.5,4.5
		c-21.3-5.8-35.8-11.3-51.2-17.1c-8.5-3.2-17.3-6.6-27.8-10.2C35.9,62.8,18.5,63.2,7,65.3v15.8C9,80.6,11.1,80.2,13.1,80z"/>
	<path fill="#00AECD" d="M321.1,220.1c-21.2-4.6-40.3-12-58.8-19.2c-7.9-3.1-16.1-6.2-24.3-9.1c-4.2-1.5-8.7-2.3-13.2-2.4
		c-4.1-0.1-8.3,0.8-12.1,2.4c-3.8,1.6-7.2,4-10,7c-4.3,4.6-7.2,10.4-8.3,16.7c-1.1,6.2-0.4,12.6,2.1,18.5
		c5.4,12.3,17.8,19.3,34.2,19.3h52.9v-15.7h-52.9c-9.9,0-16.9-3.5-19.7-9.8c-1.2-3-1.6-6.3-1-9.5c0.6-3.2,2-6.2,4.2-8.6
		c4.4-4.7,10.7-5.7,18.4-3c8,2.8,16.1,5.9,23.9,9c19,7.3,38.7,14.9,61.1,19.8c18.2,4.1,37.2,3.7,55.2-1.2v-16.5
		C356.3,223.2,338.3,224,321.1,220.1z"/>
	<path fill="#00AECD" d="M244.9,179.1c10.3,3.7,18.9,7.3,27.2,10.7c16.2,6.6,30.2,12.4,50.3,17.1c20.8,4.9,37.8,1.8,50.6-3.4V186
		c-10.6,5.7-26.5,10.4-46.9,5.6c-18.9-4.5-32.3-10-47.9-16.3c-8.5-3.4-17.2-7.1-27.8-10.9c-10.3-3.7-21.2-5.7-32.2-5.8
		c-5.8-0.1-11.5,0.7-17.1,2.2v16.8C212.6,171.9,231.9,174.4,244.9,179.1z"/>
	<path fill="#00AECD" d="M241.9,147.2c10.3,3.7,18.9,7.3,27.2,10.7c16.2,6.6,30.2,12.4,50.3,17.1c20.8,4.9,37.8,1.8,50.6-3.4v-17.5
		c-10.6,5.7-26.5,10.4-46.9,5.6c-18.9-4.5-32.3-10-47.9-16.3c-8.5-3.4-17.2-7.1-27.8-10.9c-10.3-3.7-21.2-5.7-32.2-5.8
		c-5.8-0.1-11.5,0.7-17.1,2.2v16.8C209.6,140,228.9,142.5,241.9,147.2z"/>
	<path fill="#00AECD" d="M242.9,116.3c10.3,3.7,18.9,7.3,27.2,10.7c16.2,6.6,30.2,12.4,50.3,17.1c20.8,4.9,37.8,1.8,50.6-3.4v-17.5
		c-10.6,5.7-26.5,10.4-46.9,5.6c-18.9-4.5-32.3-10-47.9-16.3c-8.5-3.4-17.2-7.1-27.8-10.9c-10.3-3.7-21.2-5.7-32.2-5.8
		c-5.8-0.1-11.5,0.7-17.1,2.2v16.8C210.6,109.1,229.9,111.5,242.9,116.3z"/>
	<path fill="#00AECD" d="M242.9,84.4c10.3,3.7,18.9,7.3,27.2,10.7c16.2,6.6,30.2,12.4,50.3,17.1c20.8,4.9,37.8,1.8,50.6-3.4V91.3
		c-10.6,5.7-26.5,10.4-46.9,5.6c-18.9-4.5-32.3-10-47.9-16.3c-8.5-3.4-17.2-7.1-27.8-10.9c-10.3-3.7-21.2-5.7-32.2-5.8
		c-5.8-0.1-11.5,0.7-17.1,2.2v16.8C210.6,77.2,229.9,79.6,242.9,84.4z"/>
	<path fill="#00AECD" d="M242.9,52.5c10.3,3.7,18.9,7.3,27.2,10.7c16.2,6.6,30.2,12.4,50.3,17.1c20.8,4.9,37.8,1.8,50.6-3.4V59.4
		c-10.6,5.7-26.5,10.4-46.9,5.6c-18.9-4.5-32.3-10-47.9-16.3c-8.5-3.4-17.2-7.1-27.8-10.9C238,34,227.1,32,216.1,31.9
		c-5.8-0.1-11.5,0.7-17.1,2.2v16.8C210.6,45.3,229.9,47.7,242.9,52.5z"/>
	<path fill="#00AECD" d="M242.9,20.6c10.3,3.7,18.9,7.3,27.2,10.7c16.2,6.6,30.2,12.4,50.3,17.1c20.8,4.9,37.8,1.8,50.6-3.4V27.5
		c-10.6,5.7-26.5,10.4-46.9,5.6c-18.9-4.5-32.3-10-47.9-16.3c-8.5-3.4-17.2-7.1-27.8-10.9C238,2.1,227.1,0.1,216.1,0
		c-5.8-0.1-11.5,0.7-17.1,2.2V19C210.6,13.3,229.9,15.8,242.9,20.6z"/>
</g>
</svg>
