<svg width="105" height="105" viewBox="0 0 105 105" fill="none" xmlns="http://www.w3.org/2000/svg">
<circle cx="52.5" cy="52.5" r="52.5" fill="#E3EB7D"/>
<circle cx="66" cy="59" r="8" fill="white"/>
<circle cx="47" cy="39" r="8" fill="white"/>
<path d="M49.0984 49.1947C47.3607 50.9049 45.2787 51.76 42.8525 51.76C40.4262 51.76 38.3443 50.9049 36.6066 49.1947C34.8689 47.4516 34 45.3467 34 42.88C34 40.4791 34.8852 38.4071 36.6557 36.664C38.4262 34.888 40.4918 34 42.8525 34C45.2787 34 47.3607 34.8716 49.0984 36.6147C50.8361 38.3249 51.7049 40.4133 51.7049 42.88C51.7049 45.3467 50.8361 47.4516 49.0984 49.1947ZM38.4289 68.0882C37.8846 68.6334 37.001 68.633 36.4571 68.0874C35.9147 67.5433 35.9154 66.6627 36.4587 66.1194L65.5949 36.9851C66.1282 36.4518 66.9913 36.447 67.5304 36.9743C68.0778 37.5097 68.083 38.3889 67.542 38.9307L38.4289 68.0882ZM38.4262 47.3693C39.6721 48.5862 41.1475 49.1947 42.8525 49.1947C44.5574 49.1947 46.0328 48.5862 47.2787 47.3693C48.5246 46.1196 49.1475 44.6231 49.1475 42.88C49.1475 41.1369 48.5246 39.6569 47.2787 38.44C46.0328 37.1902 44.5574 36.5653 42.8525 36.5653C41.1475 36.5653 39.6721 37.1902 38.4262 38.44C37.1803 39.6569 36.5574 41.1369 36.5574 42.88C36.5574 44.6231 37.1803 46.1196 38.4262 47.3693ZM67.3934 68.4347C65.6557 70.1449 63.5738 71 61.1475 71C58.7213 71 56.6393 70.1449 54.9016 68.4347C53.1639 66.6916 52.2951 64.5867 52.2951 62.12C52.2951 59.7191 53.1803 57.6471 54.9508 55.904C56.7213 54.128 58.7869 53.24 61.1475 53.24C63.5738 53.24 65.6557 54.1116 67.3934 55.8547C69.1311 57.5649 70 59.6533 70 62.12C70 64.5867 69.1311 66.6916 67.3934 68.4347ZM61.1475 68.4347C62.8525 68.4347 64.3279 67.8262 65.5738 66.6093C66.8197 65.3596 67.4426 63.8631 67.4426 62.12C67.4426 60.3769 66.8197 58.8969 65.5738 57.68C64.3279 56.4302 62.8525 55.8053 61.1475 55.8053C59.4098 55.8053 57.918 56.4302 56.6721 57.68C55.4262 58.9298 54.8033 60.4098 54.8033 62.12C54.8033 63.8302 55.4262 65.3102 56.6721 66.56C57.918 67.8098 59.4098 68.4347 61.1475 68.4347Z" fill="#1D2A6C"/>
</svg>
