<svg width="105" height="105" viewBox="0 0 105 105" fill="none" xmlns="http://www.w3.org/2000/svg">
<circle cx="52.5" cy="52.5" r="52.5" fill="#E3EB7D"/>
<circle cx="56" cy="45" r="7" fill="white"/>
<path d="M67.5031 61.3816C62.8973 50.206 48.8172 50.2058 44.2115 61.3816C43.2797 63.6426 45.1993 65.8573 47.6447 65.8573H64.0699C66.5153 65.8573 68.4349 63.6426 67.5031 61.3816Z" fill="white"/>
<circle cx="52" cy="49" r="6" stroke="#1D2A6C" stroke-width="2"/>
<path d="M41.1361 65.7626C43.2911 60.5335 47.6078 57.9998 51.8573 57.9998C56.1068 57.9999 60.4235 60.5336 62.5785 65.7626C62.8928 66.5253 62.7359 67.2629 62.2721 67.8426C61.7954 68.4384 60.9931 68.8573 60.0699 68.8573H43.6447C42.7215 68.8573 41.9192 68.4384 41.4425 67.8426C40.9787 67.2629 40.8217 66.5253 41.1361 65.7626Z" stroke="#1D2A6C" stroke-width="2"/>
<circle cx="69.5" cy="42.5" r="3.5" stroke="#1D2A6C" stroke-width="2"/>
<path d="M62.3673 53.9297C64.0933 50.5669 66.8509 49 69.5 49C72.1491 49 74.9067 50.5669 76.6327 53.9297C77.0066 54.6582 76.8853 55.3777 76.4399 55.9588C75.9774 56.562 75.1645 57 74.2245 57H64.7755C63.8355 57 63.0226 56.562 62.5601 55.9588C62.1147 55.3777 61.9934 54.6581 62.3673 53.9297Z" stroke="#1D2A6C" stroke-width="2"/>
<circle cx="35.5" cy="42.5" r="3.5" stroke="#1D2A6C" stroke-width="2"/>
<path d="M28.3673 53.9297C30.0933 50.5669 32.8509 49 35.5 49C38.1491 49 40.9067 50.5669 42.6327 53.9297C43.0066 54.6582 42.8853 55.3777 42.4399 55.9588C41.9774 56.562 41.1645 57 40.2245 57H30.7755C29.8355 57 29.0226 56.562 28.5601 55.9588C28.1147 55.3777 27.9934 54.6581 28.3673 53.9297Z" stroke="#1D2A6C" stroke-width="2"/>
</svg>
