<svg width="105" height="105" viewBox="0 0 105 105" fill="none" xmlns="http://www.w3.org/2000/svg">
<circle cx="52.5" cy="52.5" r="52.5" fill="#E3EB7D"/>
<rect x="35" y="35" width="47" height="27" rx="4" fill="white"/>
<rect x="28" y="39" width="50.1613" height="28.0323" rx="5" stroke="#1D2A6C" stroke-width="2"/>
<path d="M49.8288 49.9868C51.8044 50.4032 53.5831 51.0664 55.303 51.7119C56.0393 51.9872 56.8012 52.2718 57.5663 52.5332C57.9595 52.6711 58.3743 52.7436 58.7928 52.7476C59.1786 52.7523 59.5611 52.6793 59.9155 52.5331C60.27 52.387 60.5885 52.1711 60.8504 51.8993C61.2527 51.481 61.5208 50.9603 61.6227 50.3995C61.7246 49.8388 61.656 49.2618 61.4251 48.7375C60.9203 47.6331 59.7629 47 58.2399 47H53.3162V48.4136H58.2399C59.1626 48.4136 59.8128 48.7282 60.0716 49.3004C60.1855 49.5726 60.2178 49.87 60.1649 50.1589C60.1119 50.4478 59.9757 50.7168 59.7718 50.9353C59.3643 51.3556 58.7719 51.4466 58.0582 51.2014C57.314 50.9477 56.5625 50.6662 55.8367 50.3947C54.0637 49.7361 52.2312 49.0482 50.1439 48.6087C48.446 48.2372 46.6786 48.2756 45 48.7205V50.2042C46.559 49.7114 48.2286 49.6362 49.8288 49.9868Z" fill="#1D2A6C"/>
<path d="M56.9841 53.7618C56.0214 53.4244 55.2151 53.1049 54.4362 52.7963C52.9195 52.1962 51.6141 51.6769 49.7322 51.2471C47.785 50.8017 46.1925 51.0823 45 51.558V53.1384C45.9885 52.6245 47.4762 52.1954 49.3903 52.6339C51.1553 53.0373 52.4156 53.5364 53.8742 54.1108C54.6676 54.4217 55.4868 54.7498 56.4786 55.098C57.4457 55.4339 58.4646 55.6108 59.4925 55.6212C60.0332 55.6281 60.5721 55.5622 61.0938 55.4253V53.9056C60.0037 54.4147 58.2057 54.1909 56.9841 53.7618Z" fill="#1D2A6C"/>
<path d="M60.5262 57.1251C59.7543 57.2245 58.4898 57.2237 56.8541 56.6553C55.9017 56.3241 55.0978 56.0172 54.3226 55.7204C52.8649 55.1629 51.4887 54.6368 49.453 54.0832C47.2481 53.4842 46.081 54.4935 45.6818 54.9547C45.3306 55.3578 45.1039 55.8508 45.0281 56.3758C44.9523 56.9008 45.0306 57.4361 45.2539 57.919C45.499 58.4381 46.3037 59.6462 48.4735 59.6462H52.944V58.211H48.4735C47.5259 58.211 46.8545 57.8932 46.5815 57.3161C46.4751 57.0818 46.4389 56.8227 46.477 56.569C46.5152 56.3153 46.6262 56.0774 46.797 55.8833C47.2569 55.3524 48.0823 55.1997 49.0618 55.4659C51.0288 56.0007 52.3716 56.5136 53.7934 57.0577C54.5805 57.3584 55.39 57.6692 56.3679 58.0075C58.4211 58.7215 60.0313 58.6816 61.0938 58.4874V57.0217C60.9067 57.0664 60.7172 57.1009 60.5262 57.1251Z" fill="#1D2A6C"/>
</svg>
