<svg width="105" height="105" viewBox="0 0 105 105" fill="none" xmlns="http://www.w3.org/2000/svg">
<circle cx="52.5" cy="52.5" r="52.5" fill="#E3EB7D"/>
<rect x="33" y="43" width="48" height="27" rx="4" fill="white"/>
<rect x="27" y="46" width="50.1613" height="28.0323" rx="5" stroke="#1D2A6C" stroke-width="2"/>
<path d="M50.4647 39.7625C44.7589 39.7625 36.7457 37.8777 37.9833 32.5815C39.4558 26.2803 49.7515 30.0681 50.4647 39.7625Z" stroke="#1D2A6C" stroke-width="2"/>
<path d="M55.2061 26.3276C50.8593 29.1849 50.2007 36.2066 50.8593 39.7631C61.126 41.1012 64.848 35.935 65.4803 31.8599C66.2632 26.8137 60.5399 22.8215 55.2061 26.3276Z" stroke="#1D2A6C" stroke-width="2"/>
<path d="M50.459 39.5308C50.459 39.5308 55.8804 41.3967 60.4741 41.1201C64.377 40.885 69.9447 37.5651 71.8498 31.3378" stroke="#1D2A6C" stroke-width="2"/>
<path d="M38.6019 41.4898C40.5098 42.0033 44.7838 43.153 48.9631 41.0037C49.6973 40.6262 50.3216 40.2065 50.8519 39.771" stroke="#1D2A6C" stroke-width="2"/>
<path d="M48.2155 56.6801C50.1911 57.0966 51.9698 57.7598 53.6898 58.4053C54.426 58.6806 55.1879 58.9651 55.9531 59.2266C56.3462 59.3645 56.761 59.437 57.1796 59.4409C57.5653 59.4457 57.9478 59.3726 58.3022 59.2265C58.6567 59.0804 58.9752 58.8644 59.2371 58.5926C59.6394 58.1743 59.9075 57.6536 60.0094 57.0929C60.1114 56.5322 60.0427 55.9551 59.8118 55.4308C59.307 54.3265 58.1497 53.6934 56.6266 53.6934H51.7029V55.1069H56.6266C57.5493 55.1069 58.1995 55.4216 58.4583 55.9938C58.5722 56.266 58.6045 56.5634 58.5516 56.8523C58.4986 57.1412 58.3624 57.4101 58.1585 57.6287C57.751 58.049 57.1587 58.14 56.4449 57.8947C55.7007 57.641 54.9492 57.3595 54.2234 57.0881C52.4504 56.4295 50.6179 55.7416 48.5306 55.302C46.8327 54.9306 45.0653 54.969 43.3867 55.4139V56.8976C44.9457 56.4048 46.6153 56.3296 48.2155 56.6801Z" fill="#1D2A6C"/>
<path d="M55.3708 60.4551C54.4081 60.1178 53.6018 59.7983 52.8229 59.4897C51.3062 58.8896 50.0008 58.3703 48.1189 57.9404C46.1717 57.495 44.5792 57.7756 43.3867 58.2514V59.8317C44.3752 59.3179 45.8629 58.8888 47.777 59.3272C49.542 59.7307 50.8023 60.2297 52.2609 60.8042C53.0543 61.1151 53.8735 61.4431 54.8653 61.7914C55.8324 62.1273 56.8513 62.3042 57.8792 62.3145C58.4199 62.3215 58.9589 62.2555 59.4806 62.1187V60.5989C58.3904 61.1081 56.5924 60.8842 55.3708 60.4551Z" fill="#1D2A6C"/>
<path d="M58.913 63.8184C58.141 63.9179 56.8765 63.9171 55.2408 63.3486C54.2884 63.0174 53.4845 62.7105 52.7094 62.4138C51.2517 61.8563 49.8754 61.3301 47.8397 60.7766C45.6348 60.1776 44.4677 61.1869 44.0685 61.648C43.7174 62.0512 43.4906 62.5441 43.4148 63.0691C43.339 63.5941 43.4174 64.1295 43.6406 64.6124C43.8857 65.1315 44.6904 66.3396 46.8602 66.3396H51.3307V64.9044H46.8602C45.9126 64.9044 45.2412 64.5865 44.9682 64.0095C44.8618 63.7752 44.8256 63.5161 44.8638 63.2623C44.9019 63.0086 45.0129 62.7708 45.1838 62.5766C45.6436 62.0458 46.469 61.8931 47.4485 62.1593C49.4156 62.6941 50.7583 63.2069 52.1801 63.7511C52.9672 64.0518 53.7767 64.3626 54.7546 64.7008C56.8078 65.4149 58.418 65.375 59.4806 65.1808V63.7151C59.2934 63.7598 59.104 63.7943 58.913 63.8184Z" fill="#1D2A6C"/>
</svg>
