<?xml version="1.0" encoding="utf-8"?>
<!-- Generator: Adobe Illustrator 24.2.3, SVG Export Plug-In . SVG Version: 6.00 Build 0)  -->
<svg version="1.1" id="Слой_1" xmlns="http://www.w3.org/2000/svg" xmlns:xlink="http://www.w3.org/1999/xlink" x="0px" y="0px"
	 width="373px" height="348px" viewBox="0 0 373 348" enable-background="new 0 0 373 348" xml:space="preserve">
<g opacity="0.1">
	<path fill="#00AECD" d="M245.8,33.2c21.2,4.6,40.3,12,58.8,19.2c7.9,3.1,16.1,6.2,24.3,9.1c4.2,1.5,8.7,2.3,13.2,2.4
		c4.1,0.1,8.2-0.8,12.1-2.4s7.2-4,10-7c4.3-4.6,7.2-10.4,8.3-16.7c1.1-6.2,0.4-12.6-2.1-18.5C364.9,7,352.4,0,336.1,0h-52.9v15.7
		h52.9c9.9,0,16.9,3.5,19.7,9.8c1.2,3,1.6,6.3,1,9.5s-2,6.2-4.2,8.6c-4.4,4.7-10.7,5.7-18.4,3c-8-2.8-16.1-5.9-23.9-9
		c-19-7.3-38.7-14.9-61.1-19.8C231,13.7,212,14.1,194,19v16.5C210.6,30.1,228.6,29.3,245.8,33.2z"/>
	<path fill="#00AECD" d="M322,74.2c-10.3-3.7-18.9-7.3-27.2-10.7c-16.2-6.6-30.2-12.4-50.3-17.1c-20.8-4.9-37.8-1.8-50.6,3.4v17.5
		c10.6-5.7,26.5-10.4,46.9-5.6c18.9,4.5,32.3,10,47.9,16.3c8.5,3.4,17.2,7.1,27.8,10.9c10.3,3.7,21.2,5.7,32.2,5.8
		c5.8,0.1,11.5-0.7,17.1-2.2V75.7C354.2,81.4,335,78.9,322,74.2z"/>
	<path fill="#00AECD" d="M325,106.1c-10.3-3.7-18.9-7.3-27.2-10.7c-16.2-6.6-30.2-12.4-50.3-17.1c-20.8-4.9-37.8-1.8-50.6,3.4v17.5
		c10.6-5.7,26.5-10.4,46.9-5.6c18.9,4.5,32.3,10,47.9,16.3c8.5,3.4,17.2,7.1,27.8,10.9c10.3,3.7,21.2,5.7,32.2,5.8
		c5.8,0.1,11.5-0.7,17.1-2.2v-16.8C357.2,113.3,338,110.8,325,106.1z"/>
	<path fill="#00AECD" d="M324,137c-10.3-3.7-18.9-7.3-27.2-10.7c-16.2-6.6-30.2-12.4-50.3-17.1c-20.8-4.9-37.8-1.8-50.6,3.4v17.5
		c10.6-5.7,26.5-10.4,46.9-5.6c18.9,4.5,32.3,10,47.9,16.3c8.5,3.4,17.2,7.1,27.8,10.9c10.3,3.7,21.2,5.7,32.2,5.8
		c5.8,0.1,11.5-0.7,17.1-2.2v-16.8C356.2,144.2,337,141.7,324,137z"/>
	<path fill="#00AECD" d="M324,168.9c-10.3-3.7-18.9-7.3-27.2-10.7c-16.2-6.6-30.2-12.4-50.3-17.1c-20.8-4.9-37.8-1.8-50.6,3.4V162
		c10.6-5.7,26.5-10.4,46.9-5.6c18.9,4.5,32.3,10,47.9,16.3c8.5,3.4,17.2,7.1,27.8,10.9c10.3,3.7,21.2,5.7,32.2,5.8
		c5.8,0.1,11.5-0.7,17.1-2.2v-16.8C356.2,176.1,337,173.6,324,168.9z"/>
	<path fill="#00AECD" d="M324,200.8c-10.3-3.7-18.9-7.3-27.2-10.7c-16.2-6.6-30.2-12.4-50.3-17.1c-20.8-4.9-37.8-1.8-50.6,3.4v17.5
		c10.6-5.7,26.5-10.4,46.9-5.6c18.9,4.5,32.3,10,47.9,16.3c8.5,3.4,17.2,7.1,27.8,10.9c10.3,3.7,21.2,5.7,32.2,5.8
		c5.8,0.1,11.5-0.7,17.1-2.2v-16.8C356.2,208,337,205.5,324,200.8z"/>
	<path fill="#00AECD" d="M324,232.7c-10.3-3.7-18.9-7.3-27.2-10.7c-16.2-6.6-30.2-12.4-50.3-17.1c-20.8-4.9-37.8-1.8-50.6,3.4v17.5
		c10.6-5.7,26.5-10.4,46.9-5.6c18.9,4.5,32.3,10,47.9,16.3c8.5,3.4,17.2,7.1,27.8,10.9c10.3,3.7,21.2,5.7,32.2,5.8
		c5.8,0.1,11.5-0.7,17.1-2.2v-16.8C356.2,239.9,337,237.4,324,232.7z"/>
	<path fill="#00AECD" d="M359.8,268c-8.3,1.1-22,1.1-39.7-5.1c-10.3-3.6-19-6.9-27.4-10.1c-15.8-6-30.6-11.7-52.6-17.6
		c-23.8-6.4-36.5,4.4-40.8,9.4c-3.8,4.3-6.2,9.6-7.1,15.3c-0.8,5.6,0,11.4,2.4,16.6c2.7,5.6,11.4,18.6,34.8,18.6h48.4v-15.4h-48.3
		c-10.2,0-17.5-3.4-20.5-9.6c-1.2-2.5-1.5-5.3-1.1-8c0.4-2.7,1.6-5.3,3.5-7.4c5-5.7,13.9-7.4,24.5-4.5c21.3,5.8,35.8,11.3,51.2,17.1
		c8.5,3.2,17.3,6.6,27.8,10.2c22.1,7.7,39.5,7.3,51,5.2v-15.8C363.9,267.4,361.8,267.8,359.8,268z"/>
	<path fill="#00AECD" d="M51.8,127.9c21.2,4.6,40.3,12,58.8,19.2c7.9,3.1,16.1,6.2,24.3,9.1c4.2,1.5,8.7,2.3,13.2,2.4
		c4.1,0.1,8.3-0.8,12.1-2.4c3.8-1.6,7.2-4,10-7c4.3-4.6,7.2-10.4,8.3-16.7c1.1-6.2,0.4-12.6-2.1-18.5c-5.4-12.3-17.8-19.3-34.2-19.3
		H89.3v15.7h52.9c9.9,0,16.9,3.5,19.7,9.8c1.2,3,1.6,6.3,1,9.5c-0.6,3.2-2,6.2-4.2,8.6c-4.4,4.7-10.7,5.7-18.4,3
		c-8-2.8-16.1-5.9-23.9-9c-19-7.3-38.7-14.9-61.1-19.8c-18.2-4.1-37.2-3.7-55.2,1.2v16.5C16.6,124.8,34.6,124,51.8,127.9z"/>
	<path fill="#00AECD" d="M128,168.9c-10.3-3.7-18.9-7.3-27.2-10.7c-16.2-6.6-30.2-12.4-50.3-17.1c-20.8-4.9-37.8-1.8-50.6,3.4V162
		c10.6-5.7,26.5-10.4,46.9-5.6c18.9,4.5,32.3,10,47.9,16.3c8.5,3.4,17.2,7.1,27.8,10.9c10.3,3.7,21.2,5.7,32.2,5.8
		c5.8,0.1,11.5-0.7,17.1-2.2v-16.8C160.3,176.1,141,173.6,128,168.9z"/>
	<path fill="#00AECD" d="M131,200.8c-10.3-3.7-18.9-7.3-27.2-10.7c-16.2-6.6-30.2-12.4-50.3-17.1c-20.8-4.9-37.8-1.8-50.6,3.4v17.5
		c10.6-5.7,26.5-10.4,46.9-5.6c18.9,4.5,32.3,10,47.9,16.3c8.5,3.4,17.2,7.1,27.8,10.9c10.3,3.7,21.2,5.7,32.2,5.8
		c5.8,0.1,11.5-0.7,17.1-2.2v-16.8C163.3,208,144,205.5,131,200.8z"/>
	<path fill="#00AECD" d="M130,231.7c-10.3-3.7-18.9-7.3-27.2-10.7c-16.2-6.6-30.2-12.4-50.3-17.1c-20.8-4.9-37.8-1.8-50.6,3.4v17.5
		c10.6-5.7,26.5-10.4,46.9-5.6c18.9,4.5,32.3,10,47.9,16.3c8.5,3.4,17.2,7.1,27.8,10.9c10.3,3.7,21.2,5.7,32.2,5.8
		c5.8,0.1,11.5-0.7,17.1-2.2v-16.8C162.3,238.9,143,236.5,130,231.7z"/>
	<path fill="#00AECD" d="M130,263.6c-10.3-3.7-18.9-7.3-27.2-10.7c-16.2-6.6-30.2-12.4-50.3-17.1c-20.8-4.9-37.8-1.8-50.6,3.4v17.5
		c10.6-5.7,26.5-10.4,46.9-5.6c18.9,4.5,32.3,10,47.9,16.3c8.5,3.4,17.2,7.1,27.8,10.9c10.3,3.7,21.2,5.7,32.2,5.8
		c5.8,0.1,11.5-0.7,17.1-2.2v-16.8C162.3,270.8,143,268.4,130,263.6z"/>
	<path fill="#00AECD" d="M130,295.5c-10.3-3.7-18.9-7.3-27.2-10.7c-16.2-6.6-30.2-12.4-50.3-17.1c-20.8-4.9-37.8-1.8-50.6,3.4v17.5
		c10.6-5.7,26.5-10.4,46.9-5.6c18.9,4.5,32.3,10,47.9,16.3c8.5,3.4,17.2,7.1,27.8,10.9c10.4,3.8,21.3,5.8,32.3,5.9
		c5.8,0.1,11.5-0.7,17.1-2.2v-16.8C162.3,302.7,143,300.3,130,295.5z"/>
	<path fill="#00AECD" d="M130,327.4c-10.3-3.7-18.9-7.3-27.2-10.7c-16.2-6.6-30.2-12.4-50.3-17.1c-20.8-4.9-37.8-1.8-50.6,3.4v17.5
		c10.6-5.7,26.5-10.4,46.9-5.6c18.9,4.5,32.3,10,47.9,16.3c8.5,3.4,17.2,7.1,27.8,10.9c10.4,3.8,21.3,5.8,32.3,5.9
		c5.8,0.1,11.5-0.7,17.1-2.2V329C162.3,334.7,143,332.2,130,327.4z"/>
</g>
</svg>
