<svg width="122" height="13" viewBox="0 0 122 13" fill="none" xmlns="http://www.w3.org/2000/svg">
<path opacity="0.6" d="M8.00975 9.016H9.14975V11.776H8.14175V10H1.84175V11.776H0.83375V9.016H1.48175C1.88975 8.56 2.19375 7.86 2.39375 6.916C2.59375 5.972 2.70575 4.692 2.72975 3.076L2.75375 1.6H8.00975V9.016ZM3.32975 7.192C3.16975 7.928 2.93375 8.536 2.62175 9.016H6.92975V2.584H3.78575C3.68975 4.648 3.53775 6.184 3.32975 7.192ZM14.7672 3.976H15.5832V10H14.5512V5.716L11.3352 10H10.5192V3.976H11.5512V8.26L14.7672 3.976ZM20.7064 6.748C21.4824 7.004 21.8704 7.524 21.8704 8.308C21.8704 8.892 21.6504 9.348 21.2104 9.676C20.7704 10.004 20.1664 10.168 19.3984 10.168C18.5984 10.168 17.8864 10 17.2624 9.664V8.548H17.3944C17.8904 8.988 18.5344 9.208 19.3264 9.208C19.7824 9.208 20.1424 9.124 20.4064 8.956C20.6784 8.788 20.8144 8.548 20.8144 8.236C20.8144 7.924 20.6784 7.684 20.4064 7.516C20.1344 7.348 19.7384 7.264 19.2184 7.264H18.4144V6.376H19.2904C19.7384 6.376 20.0664 6.3 20.2744 6.148C20.4824 5.996 20.5864 5.8 20.5864 5.56C20.5864 5.312 20.4784 5.12 20.2624 4.984C20.0464 4.84 19.7304 4.768 19.3144 4.768C18.6584 4.768 18.0744 4.968 17.5624 5.368H17.4544V4.264C18.0784 3.96 18.7424 3.808 19.4464 3.808C20.1264 3.808 20.6624 3.956 21.0544 4.252C21.4464 4.54 21.6424 4.92 21.6424 5.392C21.6424 6 21.3304 6.452 20.7064 6.748ZM25.6041 3.808C26.3561 3.808 26.9521 4.004 27.3921 4.396C27.8401 4.78 28.0641 5.36 28.0641 6.136V10H27.1521V9.448C26.6961 9.928 26.0641 10.168 25.2561 10.168C24.5681 10.168 24.0161 9.988 23.6001 9.628C23.1841 9.26 22.9761 8.792 22.9761 8.224C22.9761 7.664 23.1881 7.204 23.6121 6.844C24.0441 6.484 24.6081 6.304 25.3041 6.304C26.0321 6.304 26.6081 6.492 27.0321 6.868V6.256C27.0321 5.752 26.8921 5.38 26.6121 5.14C26.3321 4.892 25.9561 4.768 25.4841 4.768C24.9001 4.768 24.3241 4.932 23.7561 5.26H23.6241V4.204C24.2641 3.94 24.9241 3.808 25.6041 3.808ZM24.4161 8.932C24.6881 9.116 25.0681 9.208 25.5561 9.208C26.0441 9.208 26.4241 9.116 26.6961 8.932C26.9681 8.74 27.1041 8.5 27.1041 8.212C27.1041 7.924 26.9681 7.688 26.6961 7.504C26.4241 7.312 26.0441 7.216 25.5561 7.216C25.0681 7.216 24.6881 7.312 24.4161 7.504C24.1441 7.688 24.0081 7.924 24.0081 8.212C24.0081 8.5 24.1441 8.74 24.4161 8.932ZM34.1617 3.976H34.9777V10H33.9457V5.716L30.7297 10H29.9137V3.976H30.9457V8.26L34.1617 3.976ZM33.3217 1.168H34.1857V1.408C34.1857 1.968 34.0297 2.396 33.7177 2.692C33.4137 2.988 32.9897 3.136 32.4457 3.136C31.9017 3.136 31.4737 2.988 31.1617 2.692C30.8577 2.396 30.7057 1.968 30.7057 1.408V1.168H31.5697V1.468C31.5697 1.748 31.6497 1.972 31.8097 2.14C31.9777 2.3 32.1897 2.38 32.4457 2.38C32.7017 2.38 32.9097 2.3 33.0697 2.14C33.2377 1.972 33.3217 1.748 33.3217 1.468V1.168ZM40.8809 3.976H41.9129V10H40.8809V7.276H37.9769V10H36.9449V3.976H37.9769V6.364H40.8809V3.976ZM50.7906 3.976H51.6066V10H50.5746V5.716L47.3586 10H46.5426V3.976H47.5746V8.26L50.7906 3.976ZM59.366 3.808C60.142 3.808 60.814 4.088 61.382 4.648C61.95 5.208 62.234 5.988 62.234 6.988C62.234 7.988 61.95 8.768 61.382 9.328C60.822 9.888 60.154 10.168 59.378 10.168C58.498 10.168 57.794 9.836 57.266 9.172V12.328H56.234V3.976H57.146V4.96C57.402 4.592 57.726 4.308 58.118 4.108C58.51 3.908 58.926 3.808 59.366 3.808ZM57.77 8.644C58.162 9.02 58.634 9.208 59.186 9.208C59.738 9.208 60.206 9.02 60.59 8.644C60.982 8.26 61.178 7.708 61.178 6.988C61.178 6.268 60.982 5.72 60.59 5.344C60.206 4.96 59.738 4.768 59.186 4.768C58.634 4.768 58.162 4.96 57.77 5.344C57.386 5.72 57.194 6.268 57.194 6.988C57.194 7.708 57.386 8.26 57.77 8.644ZM65.9166 3.808C66.6686 3.808 67.2646 4.004 67.7046 4.396C68.1526 4.78 68.3766 5.36 68.3766 6.136V10H67.4646V9.448C67.0086 9.928 66.3766 10.168 65.5686 10.168C64.8806 10.168 64.3286 9.988 63.9126 9.628C63.4966 9.26 63.2886 8.792 63.2886 8.224C63.2886 7.664 63.5006 7.204 63.9246 6.844C64.3566 6.484 64.9206 6.304 65.6166 6.304C66.3446 6.304 66.9206 6.492 67.3446 6.868V6.256C67.3446 5.752 67.2046 5.38 66.9246 5.14C66.6446 4.892 66.2686 4.768 65.7966 4.768C65.2126 4.768 64.6366 4.932 64.0686 5.26H63.9366V4.204C64.5766 3.94 65.2366 3.808 65.9166 3.808ZM64.7286 8.932C65.0006 9.116 65.3806 9.208 65.8686 9.208C66.3566 9.208 66.7366 9.116 67.0086 8.932C67.2806 8.74 67.4166 8.5 67.4166 8.212C67.4166 7.924 67.2806 7.688 67.0086 7.504C66.7366 7.312 66.3566 7.216 65.8686 7.216C65.3806 7.216 65.0006 7.312 64.7286 7.504C64.4566 7.688 64.3206 7.924 64.3206 8.212C64.3206 8.5 64.4566 8.74 64.7286 8.932ZM73.3822 6.748C74.1582 7.004 74.5462 7.524 74.5462 8.308C74.5462 8.892 74.3262 9.348 73.8862 9.676C73.4462 10.004 72.8422 10.168 72.0742 10.168C71.2742 10.168 70.5622 10 69.9382 9.664V8.548H70.0702C70.5662 8.988 71.2102 9.208 72.0022 9.208C72.4582 9.208 72.8182 9.124 73.0822 8.956C73.3542 8.788 73.4902 8.548 73.4902 8.236C73.4902 7.924 73.3542 7.684 73.0822 7.516C72.8102 7.348 72.4142 7.264 71.8942 7.264H71.0902V6.376H71.9662C72.4142 6.376 72.7422 6.3 72.9502 6.148C73.1582 5.996 73.2622 5.8 73.2622 5.56C73.2622 5.312 73.1542 5.12 72.9382 4.984C72.7222 4.84 72.4062 4.768 71.9902 4.768C71.3342 4.768 70.7502 4.968 70.2382 5.368H70.1302V4.264C70.7542 3.96 71.4182 3.808 72.1222 3.808C72.8022 3.808 73.3382 3.956 73.7302 4.252C74.1222 4.54 74.3182 4.92 74.3182 5.392C74.3182 6 74.0062 6.452 73.3822 6.748ZM79.2879 3.808C80.0639 3.808 80.7359 4.088 81.3039 4.648C81.8719 5.208 82.1559 5.988 82.1559 6.988C82.1559 7.988 81.8719 8.768 81.3039 9.328C80.7439 9.888 80.0759 10.168 79.2999 10.168C78.4199 10.168 77.7159 9.836 77.1879 9.172V12.328H76.1559V3.976H77.0679V4.96C77.3239 4.592 77.6479 4.308 78.0399 4.108C78.4319 3.908 78.8479 3.808 79.2879 3.808ZM77.6919 8.644C78.0839 9.02 78.5559 9.208 79.1079 9.208C79.6599 9.208 80.1279 9.02 80.5119 8.644C80.9039 8.26 81.0999 7.708 81.0999 6.988C81.0999 6.268 80.9039 5.72 80.5119 5.344C80.1279 4.96 79.6599 4.768 79.1079 4.768C78.5559 4.768 78.0839 4.96 77.6919 5.344C77.3079 5.72 77.1159 6.268 77.1159 6.988C77.1159 7.708 77.3079 8.26 77.6919 8.644ZM85.8385 3.808C86.5905 3.808 87.1865 4.004 87.6265 4.396C88.0745 4.78 88.2985 5.36 88.2985 6.136V10H87.3865V9.448C86.9305 9.928 86.2985 10.168 85.4905 10.168C84.8025 10.168 84.2505 9.988 83.8345 9.628C83.4185 9.26 83.2105 8.792 83.2105 8.224C83.2105 7.664 83.4225 7.204 83.8465 6.844C84.2785 6.484 84.8425 6.304 85.5385 6.304C86.2665 6.304 86.8425 6.492 87.2665 6.868V6.256C87.2665 5.752 87.1265 5.38 86.8465 5.14C86.5665 4.892 86.1905 4.768 85.7185 4.768C85.1345 4.768 84.5585 4.932 83.9905 5.26H83.8585V4.204C84.4985 3.94 85.1585 3.808 85.8385 3.808ZM84.6505 8.932C84.9225 9.116 85.3025 9.208 85.7905 9.208C86.2785 9.208 86.6585 9.116 86.9305 8.932C87.2025 8.74 87.3385 8.5 87.3385 8.212C87.3385 7.924 87.2025 7.688 86.9305 7.504C86.6585 7.312 86.2785 7.216 85.7905 7.216C85.3025 7.216 84.9225 7.312 84.6505 7.504C84.3785 7.688 84.2425 7.924 84.2425 8.212C84.2425 8.5 84.3785 8.74 84.6505 8.932ZM93.1481 4.048C93.9961 4.048 94.6761 4.328 95.1881 4.888C95.7001 5.44 95.9561 6.172 95.9561 7.084C95.9561 8.004 95.6801 8.748 95.1281 9.316C94.5761 9.884 93.8441 10.168 92.9321 10.168C92.0361 10.168 91.2961 9.852 90.7121 9.22C90.1281 8.588 89.8361 7.524 89.8361 6.028C89.8361 4.404 90.2281 3.124 91.0121 2.188C91.4521 1.66 92.0561 1.356 92.8241 1.276L94.1321 1.144C94.5321 1.096 94.9281 1.036 95.3201 0.964V1.924C95.0641 2.004 94.7321 2.06 94.3241 2.092C93.5721 2.164 93.1561 2.208 93.0761 2.224C92.3881 2.32 91.8681 2.612 91.5161 3.1C91.1721 3.588 90.9441 4.332 90.8321 5.332C91.3041 4.476 92.0761 4.048 93.1481 4.048ZM91.5401 8.62C91.9241 9.012 92.3881 9.208 92.9321 9.208C93.4761 9.208 93.9401 9.012 94.3241 8.62C94.7081 8.228 94.9001 7.716 94.9001 7.084C94.9001 6.452 94.7081 5.94 94.3241 5.548C93.9401 5.156 93.4761 4.96 92.9321 4.96C92.3881 4.96 91.9241 5.156 91.5401 5.548C91.1561 5.94 90.9641 6.452 90.9641 7.084C90.9641 7.716 91.1561 8.228 91.5401 8.62ZM98.0112 9.292C97.4112 8.7 97.1112 7.932 97.1112 6.988C97.1112 6.044 97.4112 5.28 98.0112 4.696C98.6192 4.104 99.3752 3.808 100.279 3.808C101.183 3.808 101.935 4.104 102.535 4.696C103.143 5.28 103.447 6.044 103.447 6.988C103.447 7.932 103.143 8.7 102.535 9.292C101.935 9.876 101.183 10.168 100.279 10.168C99.3752 10.168 98.6192 9.876 98.0112 9.292ZM98.7672 5.38C98.3672 5.788 98.1672 6.324 98.1672 6.988C98.1672 7.652 98.3672 8.188 98.7672 8.596C99.1672 9.004 99.6712 9.208 100.279 9.208C100.887 9.208 101.391 9.004 101.791 8.596C102.191 8.188 102.391 7.652 102.391 6.988C102.391 6.324 102.191 5.788 101.791 5.38C101.391 4.972 100.887 4.768 100.279 4.768C99.6712 4.768 99.1672 4.972 98.7672 5.38ZM109.066 3.976V4.888H107.146V10H106.114V4.888H104.194V3.976H109.066ZM115.415 10H114.011L111.371 6.928V10H110.339V3.976H111.371V6.568L113.783 3.976H115.115L112.511 6.7L115.415 10ZM118.674 3.808C119.426 3.808 120.022 4.004 120.462 4.396C120.91 4.78 121.134 5.36 121.134 6.136V10H120.222V9.448C119.766 9.928 119.134 10.168 118.326 10.168C117.638 10.168 117.086 9.988 116.67 9.628C116.254 9.26 116.046 8.792 116.046 8.224C116.046 7.664 116.258 7.204 116.682 6.844C117.114 6.484 117.678 6.304 118.374 6.304C119.102 6.304 119.678 6.492 120.102 6.868V6.256C120.102 5.752 119.962 5.38 119.682 5.14C119.402 4.892 119.026 4.768 118.554 4.768C117.97 4.768 117.394 4.932 116.826 5.26H116.694V4.204C117.334 3.94 117.994 3.808 118.674 3.808ZM117.486 8.932C117.758 9.116 118.138 9.208 118.626 9.208C119.114 9.208 119.494 9.116 119.766 8.932C120.038 8.74 120.174 8.5 120.174 8.212C120.174 7.924 120.038 7.688 119.766 7.504C119.494 7.312 119.114 7.216 118.626 7.216C118.138 7.216 117.758 7.312 117.486 7.504C117.214 7.688 117.078 7.924 117.078 8.212C117.078 8.5 117.214 8.74 117.486 8.932Z" fill="#1A1A1A"/>
</svg>
