<svg width="79" height="24" viewBox="0 0 79 24" fill="none" xmlns="http://www.w3.org/2000/svg">
<path d="M11.12 18L9.9 14.7H4.56L3.34 18H0.38L5.98 4H8.54L14.14 18H11.12ZM5.36 12.5H9.1L7.24 7.44L5.36 12.5ZM22.2036 7.96V9.98H19.1836V18H16.6236V9.98H13.5836V7.96H22.2036ZM31.1972 12.64C32.4372 13.04 33.0572 13.8467 33.0572 15.06C33.0572 15.94 32.7172 16.6533 32.0372 17.2C31.3572 17.7333 30.4639 18 29.3572 18H24.1172V7.96H28.7772C29.8705 7.96 30.7505 8.20667 31.4172 8.7C32.0972 9.18 32.4372 9.83333 32.4372 10.66C32.4372 11.5533 32.0239 12.2133 31.1972 12.64ZM29.4772 11.72C29.7172 11.52 29.8372 11.26 29.8372 10.94C29.8372 10.62 29.7172 10.3667 29.4772 10.18C29.2505 9.98 28.9105 9.88 28.4572 9.88H26.6772V12H28.4572C28.9105 12 29.2505 11.9067 29.4772 11.72ZM26.6772 16.08H28.9772C29.4439 16.08 29.8105 15.9733 30.0772 15.76C30.3439 15.5333 30.4772 15.24 30.4772 14.88C30.4772 14.52 30.3439 14.2333 30.0772 14.02C29.8105 13.7933 29.4439 13.68 28.9772 13.68H26.6772V16.08ZM42.6834 7.96H44.6834V18H42.1434V11.9L37.5234 18H35.5234V7.96H38.0634V14.06L42.6834 7.96ZM54.1314 7.96H56.6714V18H54.1314V13.74H50.2514V18H47.6914V7.96H50.2514V11.72H54.1314V7.96ZM67.1841 7.96V9.98H64.1641V18H61.6041V9.98H58.5641V7.96H67.1841ZM72.8809 7.68C74.2543 7.68 75.3343 8.02 76.1209 8.7C76.9076 9.38 77.3009 10.4133 77.3009 11.8V18H75.1009V16.94C74.3809 17.8333 73.3409 18.28 71.9809 18.28C70.8743 18.28 69.9609 17.9733 69.2409 17.36C68.5343 16.7467 68.1809 15.9733 68.1809 15.04C68.1809 14.0933 68.5409 13.32 69.2609 12.72C69.9943 12.12 70.9476 11.82 72.1209 11.82C73.2009 11.82 74.0743 12.0733 74.7409 12.58V12C74.7409 10.5867 73.9476 9.88 72.3609 9.88C71.4143 9.88 70.4743 10.1467 69.5409 10.68H69.2809V8.38C70.4143 7.91333 71.6143 7.68 72.8809 7.68ZM71.3009 15.86C71.6743 16.1133 72.1876 16.24 72.8409 16.24C73.4943 16.24 74.0076 16.1133 74.3809 15.86C74.7543 15.6067 74.9409 15.2867 74.9409 14.9C74.9409 14.5133 74.7543 14.2 74.3809 13.96C74.0076 13.7067 73.4943 13.58 72.8409 13.58C72.1876 13.58 71.6743 13.7067 71.3009 13.96C70.9276 14.2 70.7409 14.5133 70.7409 14.9C70.7409 15.2867 70.9276 15.6067 71.3009 15.86Z" fill="#1A1A1A"/>
<path d="M35.4971 21L44.7301 21" stroke="#777777" stroke-width="1.5"/>
</svg>
