<svg width="136" height="74" viewBox="0 0 136 74" fill="none" xmlns="http://www.w3.org/2000/svg">
<g clip-path="url(#clip0)">
<path d="M95.4053 25.2115C79.4939 28.6215 65.1685 34.0523 51.3157 39.3379C45.3861 41.5923 39.2494 43.9225 33.0868 46.0633C29.9205 47.1927 26.5798 47.7864 23.2086 47.8188C20.1017 47.8576 17.0212 47.2594 14.1664 46.0627C11.3117 44.8661 8.74648 43.0978 6.63695 40.8724C3.39699 37.4468 1.2374 33.1831 0.416566 28.5914C-0.404265 23.9997 0.148439 19.2746 2.00854 14.9814C6.07378 5.93843 15.3953 0.753906 27.6622 0.753906H67.3176V12.3291H27.6622C20.2309 12.3291 14.994 14.9056 12.9096 19.5912C11.9919 21.8203 11.7317 24.2554 12.1583 26.6212C12.585 28.987 13.6816 31.1892 15.3241 32.9788C18.6061 36.4204 23.3769 37.1656 29.1252 35.1574C35.1195 33.0798 41.172 30.7749 47.0174 28.5521C61.2975 23.1591 76.0566 17.5263 92.8678 13.9268C106.543 10.885 120.777 11.1996 134.297 14.8424V26.9923C121.741 22.9566 108.294 22.3408 95.4053 25.2115Z" fill="#1B2661"/>
<path d="M38.2384 55.449C45.9551 52.6972 52.4181 50.0913 58.6613 47.5741C70.818 42.6792 81.2815 38.4437 96.366 34.9374C111.974 31.3043 124.738 33.5932 134.297 37.4736V50.3639C126.373 46.1728 114.449 42.6729 99.1062 46.2489C84.9589 49.5396 74.8573 53.6103 63.1659 58.2959C56.8064 60.8321 50.2401 63.5078 42.2907 66.3484C34.5383 69.0883 26.3718 70.5307 18.1322 70.6155C13.7988 70.6719 9.47861 70.1341 5.29688 69.0177V56.622C14.0348 60.775 28.4471 58.949 38.2384 55.449Z" fill="#1B2661"/>
<path d="M35.9884 78.9803C43.7051 76.2285 50.1681 73.6225 56.4113 71.1053C68.568 66.2105 79.0315 61.975 94.116 58.4687C109.724 54.8356 122.488 57.1245 132.047 61.0049V73.8952C124.123 69.7041 112.199 66.2041 96.8562 69.7802C82.7089 73.0709 72.6073 77.1415 60.9159 81.8271C54.5564 84.3633 47.9901 87.0391 40.0407 89.8796C32.2883 92.6195 24.1218 94.062 15.8822 94.1468C11.5488 94.2031 7.22861 93.6653 3.04688 92.549V80.1532C11.7848 84.3063 26.1971 82.4802 35.9884 78.9803Z" fill="#1B2661"/>
</g>
<defs>
<clipPath id="clip0">
<rect width="136" height="74" fill="white"/>
</clipPath>
</defs>
</svg>
