<?xml version="1.0" encoding="utf-8"?>
<!-- Generator: Adobe Illustrator 23.0.2, SVG Export Plug-In . SVG Version: 6.00 Build 0)  -->
<svg version="1.1" id="Слой_1" xmlns="http://www.w3.org/2000/svg" xmlns:xlink="http://www.w3.org/1999/xlink" x="0px" y="0px"
	 width="554.2px" height="342.8px" viewBox="0 0 554.2 342.8" enable-background="new 0 0 554.2 342.8" xml:space="preserve">
<g>
	<path opacity="0.1" fill="#00AECD" d="M313.1,32.7c-20.8,4.6-39.5,11.8-57.7,18.9c-7.8,3-15.8,6.1-23.8,9
		c-4.1,1.5-8.5,2.3-12.9,2.3c-4.1,0.1-8.1-0.7-11.8-2.3c-3.7-1.6-7.1-4-9.8-6.9c-4.2-4.6-7.1-10.3-8.1-16.4
		c-1.1-6.1-0.4-12.4,2.1-18.2c5.3-12.1,17.5-19,33.6-19h51.9v15.5h-51.9c-9.7,0-16.6,3.4-19.3,9.7c-1.2,3-1.5,6.2-1,9.4
		s2,6.1,4.1,8.5c4.3,4.6,10.5,5.6,18,2.9c7.8-2.8,15.8-5.9,23.4-8.8c18.7-7.2,38-14.7,60-19.5c17.9-4.1,36.5-3.6,54.2,1.2V35
		C347.5,29.7,329.9,28.8,313.1,32.7z"/>
	<path opacity="0.1" fill="#00AECD" d="M238.3,73.1c10.1-3.7,18.5-7.2,26.7-10.5c15.9-6.5,29.6-12.2,49.3-16.9
		c20.4-4.9,37.1-1.8,49.6,3.4v17.2c-10.4-5.6-26-10.3-46-5.5c-18.5,4.4-31.7,9.8-47,16.1c-8.3,3.4-16.9,7-27.3,10.8
		c-10.1,3.7-20.8,5.6-31.6,5.7c-5.7,0.1-11.3-0.6-16.8-2.1V74.6C206.6,80.2,225.5,77.7,238.3,73.1z"/>
	<path opacity="0.1" fill="#00AECD" d="M235.4,104.5c10.1-3.7,18.5-7.2,26.7-10.5c15.9-6.5,29.6-12.2,49.3-16.9
		c20.4-4.9,37.1-1.8,49.6,3.4v17.2c-10.4-5.6-26-10.3-46-5.5c-18.5,4.4-31.7,9.8-47,16.1c-8.3,3.4-16.9,7-27.3,10.8
		c-10.1,3.7-20.8,5.6-31.6,5.7c-5.7,0.1-11.3-0.6-16.8-2.1v-16.6C203.7,111.6,222.5,109.2,235.4,104.5z"/>
	<path opacity="0.1" fill="#00AECD" d="M236.3,134.9c10.1-3.7,18.5-7.2,26.7-10.5c15.9-6.5,29.6-12.2,49.3-16.9
		c20.4-4.9,37.1-1.8,49.6,3.4v17.2c-10.4-5.6-26-10.3-46-5.5c-18.5,4.4-31.7,9.8-47,16.1c-8.3,3.4-16.9,7-27.3,10.8
		c-10.1,3.7-20.8,5.6-31.6,5.7c-5.7,0.1-11.3-0.6-16.8-2.1v-16.6C204.7,142,223.5,139.6,236.3,134.9z"/>
	<path opacity="0.1" fill="#00AECD" d="M236.3,166.4c10.1-3.7,18.5-7.2,26.7-10.5c15.9-6.5,29.6-12.2,49.3-16.9
		c20.4-4.9,37.1-1.8,49.6,3.4v17.2c-10.4-5.6-26-10.3-46-5.5c-18.5,4.4-31.7,9.8-47,16.1c-8.3,3.4-16.9,7-27.3,10.8
		c-10.1,3.7-20.8,5.6-31.6,5.7c-5.7,0.1-11.3-0.6-16.8-2.1v-16.6C204.7,173.5,223.5,171,236.3,166.4z"/>
	<path opacity="0.1" fill="#00AECD" d="M236.3,197.8c10.1-3.7,18.5-7.2,26.7-10.5c15.9-6.5,29.6-12.2,49.3-16.9
		c20.4-4.9,37.1-1.8,49.6,3.4V191c-10.4-5.6-26-10.3-46-5.5c-18.5,4.4-31.7,9.8-47,16.1c-8.3,3.4-16.9,7-27.3,10.8
		c-10.1,3.7-20.8,5.6-31.6,5.7c-5.7,0.1-11.3-0.6-16.8-2.1v-16.6C204.7,204.9,223.5,202.5,236.3,197.8z"/>
	<path opacity="0.1" fill="#00AECD" d="M236.3,229.2c10.1-3.7,18.5-7.2,26.7-10.5c15.9-6.5,29.6-12.2,49.3-16.9
		c20.4-4.9,37.1-1.8,49.6,3.4v17.2c-10.4-5.6-26-10.3-46-5.5c-18.5,4.4-31.7,9.8-47,16.1c-8.3,3.4-16.9,7-27.3,10.8
		c-10.1,3.7-20.8,5.6-31.6,5.7c-5.7,0.1-11.3-0.6-16.8-2.1v-16.6C204.7,236.3,223.5,233.9,236.3,229.2z"/>
	<path opacity="0.1" fill="#00AECD" d="M201.2,264c8.2,1.1,21.6,1,38.9-5c10.1-3.5,18.6-6.8,26.8-9.9c15.5-5.9,30.1-11.5,51.6-17.3
		c23.4-6.3,35.8,4.3,40,9.2c3.7,4.3,6.1,9.5,6.9,15.1c0.8,5.6,0,11.2-2.4,16.4c-2.6,5.5-11.1,18.3-34.1,18.3h-47.4v-15.2h47.4
		c10,0,17.2-3.4,20.1-9.5c1.1-2.5,1.5-5.2,1.1-7.9c-0.4-2.7-1.6-5.2-3.4-7.3c-4.9-5.6-13.6-7.2-24-4.4
		c-20.9,5.7-35.1,11.1-50.2,16.9c-8.3,3.2-16.9,6.5-27.3,10.1c-21.8,7.6-38.9,7.1-50.1,5.1v-15.5C197.2,263.4,199.2,263.8,201.2,264
		L201.2,264z"/>
</g>
<g>
	<path opacity="0.1" fill="#00AECD" d="M503.4,126c-20.8,4.6-39.5,11.8-57.7,18.9c-7.8,3-15.8,6.1-23.8,9c-4.1,1.5-8.5,2.3-12.9,2.3
		c-4.1,0.1-8.1-0.7-11.8-2.3c-3.7-1.6-7.1-4-9.8-6.9c-4.2-4.6-7.1-10.3-8.1-16.4c-1.1-6.1-0.4-12.4,2.1-18.2
		c5.3-12.1,17.5-19,33.6-19h51.9v15.5h-51.9c-9.7,0-16.6,3.4-19.3,9.7c-1.2,3-1.5,6.2-1,9.4c0.6,3.2,2,6.1,4.1,8.5
		c4.3,4.6,10.5,5.6,18.1,2.9c7.8-2.8,15.8-5.9,23.4-8.8c18.7-7.2,38-14.7,60-19.5c17.9-4.1,36.5-3.6,54.2,1.2v16.2
		C537.8,123,520.2,122.1,503.4,126z"/>
	<path opacity="0.1" fill="#00AECD" d="M428.6,166.4c10.1-3.7,18.5-7.2,26.7-10.5c15.9-6.5,29.6-12.2,49.3-16.9
		c20.4-4.9,37.1-1.8,49.6,3.4v17.2c-10.4-5.6-26-10.3-46-5.5c-18.5,4.4-31.7,9.8-47,16.1c-8.3,3.4-16.9,7-27.3,10.8
		c-10.1,3.7-20.8,5.6-31.6,5.7c-5.7,0.1-11.3-0.6-16.8-2.1v-16.6C396.9,173.5,415.8,171,428.6,166.4z"/>
	<path opacity="0.1" fill="#00AECD" d="M425.6,197.8c10.1-3.7,18.5-7.2,26.7-10.5c15.9-6.5,29.6-12.2,49.3-16.9
		c20.4-4.9,37.1-1.8,49.6,3.4V191c-10.4-5.6-26-10.3-46-5.5c-18.5,4.4-31.7,9.8-47,16.1c-8.3,3.4-16.9,7-27.3,10.8
		c-10.1,3.7-20.8,5.6-31.6,5.7c-5.7,0.1-11.3-0.6-16.8-2.1v-16.6C394,204.9,412.8,202.5,425.6,197.8z"/>
	<path opacity="0.1" fill="#00AECD" d="M426.6,228.2c10.1-3.7,18.5-7.2,26.7-10.5c15.9-6.5,29.6-12.2,49.3-16.9
		c20.4-4.9,37.1-1.8,49.6,3.4v17.2c-10.4-5.6-26-10.3-46-5.5c-18.5,4.4-31.7,9.8-47,16.1c-8.3,3.4-16.9,7-27.3,10.8
		c-10.1,3.7-20.8,5.6-31.6,5.7c-5.7,0.1-11.3-0.6-16.8-2.1v-16.6C395,235.4,413.8,232.9,426.6,228.2z"/>
	<path opacity="0.1" fill="#00AECD" d="M426.6,259.7c10.1-3.7,18.5-7.2,26.7-10.5c15.9-6.5,29.6-12.2,49.3-16.9
		c20.4-4.9,37.1-1.8,49.6,3.4v17.2c-10.4-5.6-26-10.3-46-5.5c-18.5,4.4-31.7,9.8-47,16.1c-8.3,3.4-16.9,7-27.3,10.8
		c-10.1,3.7-20.8,5.6-31.6,5.7c-5.7,0.1-11.3-0.6-16.8-2.1v-16.6C395,266.8,413.8,264.3,426.6,259.7z"/>
	<path opacity="0.1" fill="#00AECD" d="M426.6,291.1c10.1-3.7,18.5-7.2,26.7-10.5c15.9-6.5,29.6-12.2,49.3-16.9
		c20.4-4.9,37.1-1.8,49.6,3.4v17.2c-10.4-5.6-26-10.3-46-5.5c-18.5,4.4-31.7,9.8-47,16.1c-8.3,3.4-16.9,7-27.3,10.8
		c-10.1,3.7-20.8,5.6-31.6,5.7c-5.7,0.1-11.3-0.6-16.8-2.1v-16.6C395,298.2,413.8,295.8,426.6,291.1z"/>
	<path opacity="0.1" fill="#00AECD" d="M426.6,322.5c10.1-3.7,18.5-7.2,26.7-10.5c15.9-6.5,29.6-12.2,49.3-16.9
		c20.4-4.9,37.1-1.8,49.6,3.4v17.2c-10.4-5.6-26-10.3-46-5.5c-18.5,4.4-31.7,9.8-47,16.1c-8.3,3.4-16.9,7-27.3,10.8
		c-10.1,3.7-20.8,5.6-31.6,5.7c-5.7,0.1-11.3-0.6-16.8-2.1v-16.6C395,329.6,413.8,327.2,426.6,322.5z"/>
</g>
<g>
	<path opacity="0.1" fill="#00AECD" d="M52.8,125c20.8,4.6,39.5,11.8,57.7,18.9c7.8,3,15.8,6.1,23.8,9c4.1,1.5,8.5,2.3,12.9,2.3
		c4.1,0.1,8.1-0.7,11.8-2.3c3.7-1.6,7.1-4,9.8-6.9c4.2-4.6,7.1-10.3,8.1-16.4c1.1-6.1,0.3-12.4-2.1-18.2c-5.3-12.1-17.5-19-33.6-19
		H89.6v15.5h51.9c9.7,0,16.6,3.4,19.3,9.7c1.2,3,1.5,6.2,1,9.4c-0.6,3.2-2,6.1-4.1,8.5c-4.3,4.6-10.5,5.6-18.1,2.9
		c-7.8-2.8-15.8-5.9-23.4-8.8c-18.7-7.2-38-14.7-60-19.5c-17.9-4.1-36.5-3.6-54.2,1.2v16.2C18.4,122,36,121.2,52.8,125z"/>
	<path opacity="0.1" fill="#00AECD" d="M127.6,165.4c-10.1-3.7-18.5-7.2-26.7-10.5C85,148.3,71.3,142.7,51.6,138
		c-20.4-4.9-37.1-1.8-49.6,3.4v17.2c10.4-5.6,26-10.3,46-5.5c18.5,4.4,31.7,9.8,47,16.1c8.3,3.4,16.9,7,27.3,10.8
		c10.1,3.7,20.8,5.6,31.6,5.7c5.7,0.1,11.3-0.6,16.8-2.1V167C159.3,172.5,140.4,170.1,127.6,165.4z"/>
	<path opacity="0.1" fill="#00AECD" d="M164.7,199.2c-8.2,1.1-21.6,1-38.9-5c-10.1-3.5-18.6-6.8-26.8-9.9
		c-15.5-5.9-30.1-11.5-51.6-17.3c-23.4-6.3-35.8,4.3-40,9.2c-3.7,4.3-6.1,9.5-6.9,15.1c-0.8,5.6,0,11.2,2.4,16.3
		c2.6,5.5,11.1,18.3,34.1,18.3h47.4v-15.2H36.8c-10,0-17.2-3.4-20.1-9.5c-1.1-2.5-1.5-5.2-1.1-7.9c0.4-2.7,1.6-5.2,3.4-7.3
		c4.9-5.6,13.6-7.2,24-4.4c20.9,5.7,35.1,11.1,50.2,16.9c8.3,3.2,16.9,6.5,27.3,10.1c21.8,7.6,38.9,7.1,50.1,5.1v-15.5
		C168.7,198.6,166.7,198.9,164.7,199.2L164.7,199.2z"/>
</g>
</svg>
