<?xml version="1.0" encoding="utf-8"?>
<!-- Generator: Adobe Illustrator 23.0.2, SVG Export Plug-In . SVG Version: 6.00 Build 0)  -->
<svg version="1.1" id="Слой_1" xmlns="http://www.w3.org/2000/svg" xmlns:xlink="http://www.w3.org/1999/xlink" x="0px" y="0px"
	 width="177.2px" height="290.7px" viewBox="0 0 177.2 290.7" enable-background="new 0 0 177.2 290.7" xml:space="preserve">
<g>
	<path opacity="0.1" fill="#00AECD" enable-background="new    " d="M124.6,32.6c-20.8,4.6-39.5,11.8-57.7,18.9
		c-7.8,3-15.8,6.1-23.8,9c-4.1,1.5-8.5,2.3-12.9,2.3c-4.1,0.1-8.1-0.7-11.8-2.3s-7.1-4-9.8-6.9C4.4,49,1.5,43.3,0.5,37.2
		C-0.6,31.1,0.1,24.8,2.6,19C7.9,6.9,20.1,0,36.2,0h51.9v15.5H36.2c-9.7,0-16.6,3.4-19.3,9.7c-1.2,3-1.5,6.2-1,9.4s2,6.1,4.1,8.5
		c4.3,4.6,10.5,5.6,18,2.9c7.8-2.8,15.8-5.9,23.4-8.8c18.7-7.2,38-14.7,60-19.5c17.9-4.1,36.5-3.6,54.2,1.2v16
		C159,29.6,141.4,28.7,124.6,32.6z"/>
	<path opacity="0.1" fill="#00AECD" enable-background="new    " d="M49.8,73c10.1-3.7,18.5-7.2,26.7-10.5
		c15.9-6.5,29.6-12.2,49.3-16.9c20.4-4.9,37.1-1.8,49.6,3.4v17.2c-10.4-5.6-26-10.3-46-5.5c-18.5,4.4-31.7,9.8-47,16.1
		c-8.3,3.4-16.9,7-27.3,10.8c-10.1,3.7-20.8,5.6-31.6,5.7c-5.7,0.1-11.3-0.6-16.8-2.1V74.5C18.1,80.1,37,77.6,49.8,73z"/>
	<path opacity="0.1" fill="#00AECD" enable-background="new    " d="M46.9,104.4c10.1-3.7,18.5-7.2,26.7-10.5
		c15.9-6.5,29.6-12.2,49.3-16.9c20.4-4.9,37.1-1.8,49.6,3.4v17.2c-10.4-5.6-26-10.3-46-5.5c-18.5,4.4-31.7,9.8-47,16.1
		c-8.3,3.4-16.9,7-27.3,10.8c-10.1,3.7-20.8,5.6-31.6,5.7c-5.7,0.1-11.3-0.6-16.8-2.1V106C15.2,111.5,34,109.1,46.9,104.4z"/>
	<path opacity="0.1" fill="#00AECD" enable-background="new    " d="M47.8,134.8c10.1-3.7,18.5-7.2,26.7-10.5
		c15.9-6.5,29.6-12.2,49.3-16.9c20.4-4.9,37.1-1.8,49.6,3.4V128c-10.4-5.6-26-10.3-46-5.5c-18.5,4.4-31.7,9.8-47,16.1
		c-8.3,3.4-16.9,7-27.3,10.8c-10.1,3.7-20.8,5.6-31.6,5.7c-5.7,0.1-11.3-0.6-16.8-2.1v-16.6C16.2,141.9,35,139.5,47.8,134.8z"/>
	<path opacity="0.1" fill="#00AECD" enable-background="new    " d="M47.8,166.3c10.1-3.7,18.5-7.2,26.7-10.5
		c15.9-6.5,29.6-12.2,49.3-16.9c20.4-4.9,37.1-1.8,49.6,3.4v17.2c-10.4-5.6-26-10.3-46-5.5c-18.5,4.4-31.7,9.8-47,16.1
		c-8.3,3.4-16.9,7-27.3,10.8c-10.1,3.7-20.8,5.6-31.6,5.7c-5.7,0.1-11.3-0.6-16.8-2.1v-16.6C16.2,173.4,35,170.9,47.8,166.3z"/>
	<path opacity="0.1" fill="#00AECD" enable-background="new    " d="M47.8,197.7c10.1-3.7,18.5-7.2,26.7-10.5
		c15.9-6.5,29.6-12.2,49.3-16.9c20.4-4.9,37.1-1.8,49.6,3.4v17.2c-10.4-5.6-26-10.3-46-5.5c-18.5,4.4-31.7,9.8-47,16.1
		c-8.3,3.4-16.9,7-27.3,10.8C43,216,32.3,217.9,21.5,218c-5.7,0.1-11.3-0.6-16.8-2.1v-16.6C16.2,204.8,35,202.4,47.8,197.7z"/>
	<path opacity="0.1" fill="#00AECD" enable-background="new    " d="M47.8,229.1c10.1-3.7,18.5-7.2,26.7-10.5
		c15.9-6.5,29.6-12.2,49.3-16.9c20.4-4.9,37.1-1.8,49.6,3.4v17.2c-10.4-5.6-26-10.3-46-5.5c-18.5,4.4-31.7,9.8-47,16.1
		c-8.3,3.4-16.9,7-27.3,10.8c-10.1,3.7-20.8,5.6-31.6,5.7c-5.7,0.1-11.3-0.6-16.8-2.1v-16.6C16.2,236.2,35,233.8,47.8,229.1z"/>
	<path opacity="0.1" fill="#00AECD" enable-background="new    " d="M12.7,263.9c8.2,1.1,21.6,1,38.9-5c10.1-3.5,18.6-6.8,26.8-9.9
		c15.5-5.9,30.1-11.5,51.6-17.3c23.4-6.3,35.8,4.3,40,9.2c3.7,4.3,6.1,9.5,6.9,15.1c0.8,5.6,0,11.2-2.4,16.4
		c-2.6,5.5-11.1,18.3-34.1,18.3H93v-15.2h47.4c10,0,17.2-3.4,20.1-9.5c1.1-2.5,1.5-5.2,1.1-7.9s-1.6-5.2-3.4-7.3
		c-4.9-5.6-13.6-7.2-24-4.4c-20.9,5.7-35.1,11.1-50.2,16.9c-8.3,3.2-16.9,6.5-27.3,10.1c-21.8,7.6-38.9,7.1-50.1,5.1V263
		C8.7,263.3,10.7,263.7,12.7,263.9L12.7,263.9z"/>
</g>
</svg>
