<svg xmlns="http://www.w3.org/2000/svg" x="0px" y="0px" width="157px" height="28px" viewBox="0 0 157 28">
<path fill="#1D2A6C" d="M46.2,16l-3.6-8.5L38.9,16h-2.6l5-11.5H44L49,16H46.2z"/>
<path fill="#1D2A6C" d="M63.2,4.5V16h-2.6v-1.5c-0.9,1.1-2.3,1.6-3.8,1.6c-3.4,0-5.8-2.3-5.8-5.9c0-3.6,2.5-5.9,5.8-5.9
	c1.5,0,2.8,0.5,3.7,1.5V4.5H63.2z M60.5,10.3c0-2.2-1.5-3.6-3.4-3.6c-2,0-3.4,1.4-3.4,3.6c0,2.2,1.5,3.6,3.4,3.6
	C59.1,13.8,60.5,12.4,60.5,10.3z"/>
<path fill="#1D2A6C" d="M76.9,12.6c0,2.1-2.3,3.6-5.5,3.6c-1.8,0-3.5-0.4-4.9-1.2l0.8-2c1.2,0.7,2.6,1,4,1c1.8,0,2.9-0.6,2.9-1.6
	c0-0.9-0.8-1.4-2.3-1.4h-2.2V9.2h2c1.4,0,2.2-0.5,2.2-1.3c0-0.8-1-1.4-2.6-1.4c-1.2,0-2.4,0.3-3.7,0.8l-0.7-2c1.4-0.7,3-1,4.6-1.1
	c3,0,5.1,1.3,5.1,3.2c0,1.1-0.8,2-1.9,2.5C76.1,10.4,76.9,11.4,76.9,12.6z"/>
<path fill="#1D2A6C" d="M82.6,20.3h2.6l6.9-15.8h-2.6L85.8,13l-3.6-8.5h-2.8l5,11.5L82.6,20.3z"/>
<path fill="#1D2A6C" d="M106.6,10.3c0,3.5-2.3,5.9-5.7,5.9c-1.6,0-2.9-0.5-3.8-1.5v5.5h-2.7v-9.9c0-3.5,2.5-5.9,6.2-5.9
	C104.2,4.4,106.6,6.7,106.6,10.3z M103.9,10.3c0-2.1-1.4-3.6-3.4-3.6c-2,0-3.4,1.4-3.4,3.6c0,2.1,1.4,3.6,3.4,3.6
	C102.5,13.9,103.9,12.4,103.9,10.3z"/>
<path fill="#1D2A6C" d="M110.4,4.5h2.7v4.7h5.8V4.5h2.7V16h-2.7v-4.5h-5.8V16h-2.7V4.5z"/>
<path fill="#1D2A6C" d="M136.5,12.1c0,2.5-1.8,4-4.9,3.9l-5.2,0V4.5h2.7v3.8l2.9,0C134.9,8.3,136.5,9.7,136.5,12.1z M133.8,12
	c0-1.3-0.8-1.9-2.4-1.9l-2.3,0V14l2.3,0C132.9,14.1,133.8,13.4,133.8,12L133.8,12z M138,4.5h2.7V16H138V4.5z"/>
<path fill="#1D2A6C" d="M145.4,4.5h2.7v7.6l6.4-7.6h2.5V16h-2.7V8.4l-6.4,7.6h-2.5L145.4,4.5z M147.4,0h1.8c0,1,0.7,1.7,1.8,1.7
	c1.1,0,1.8-0.6,1.8-1.7h1.8c0,2.1-1.3,3.2-3.6,3.2S147.5,2.1,147.4,0z"/>
<g>
	<path class="b-logo__bottom-item b-logo__bottom-item--1" fill="#1D2A6C" d="M36.4,24.9c0-1.1,0.8-1.8,1.9-1.8c0.3,0,0.6,0.1,0.9,0.2c0.3,0.2,0.5,0.4,0.6,0.7l-0.7,0.3
		c-0.1-0.2-0.2-0.3-0.4-0.4c-0.2-0.1-0.3-0.1-0.5-0.1c-0.6,0-1.1,0.5-1.1,1.2c0,0.7,0.5,1.2,1.1,1.2c0.2,0,0.4,0,0.5-0.1
		c0.2-0.1,0.3-0.2,0.4-0.4l0.7,0.3c-0.1,0.3-0.4,0.5-0.6,0.7c-0.3,0.2-0.6,0.2-0.9,0.2C37.2,26.7,36.4,25.9,36.4,24.9z"/>
	<path class="b-logo__bottom-item b-logo__bottom-item--2" fill="#1D2A6C" d="M43.7,23.7h-1.7v2.9h-0.8v-3.5h3.2v3.5h-0.8L43.7,23.7z"/>
	<path class="b-logo__bottom-item b-logo__bottom-item--3" fill="#1D2A6C" d="M48,23c1.1,0,1.9,0.8,1.9,1.8c0,1.1-0.8,1.8-1.9,1.8s-1.9-0.8-1.9-1.8C46.1,23.8,46.9,23,48,23z M48,23.7
		c-0.7,0-1.1,0.5-1.1,1.2c0,0.7,0.4,1.2,1.1,1.2c0.7,0,1.1-0.5,1.1-1.2C49.1,24.2,48.6,23.7,48,23.7z"/>
	<path class="b-logo__bottom-item b-logo__bottom-item--4" fill="#1D2A6C" d="M51.4,23.1h1.7c0.8,0,1.2,0.5,1.2,1.1s-0.4,1.1-1.2,1.1h-0.9v1.3h-0.8V23.1z M53,23.7h-0.8v1H53
		c0.1,0,0.1,0,0.2,0c0.1,0,0.1-0.1,0.2-0.1c0,0,0.1-0.1,0.1-0.2c0-0.1,0-0.1,0-0.2c0-0.1,0-0.1,0-0.2c0-0.1-0.1-0.1-0.1-0.2
		c0,0-0.1-0.1-0.2-0.1S53.1,23.7,53,23.7L53,23.7z"/>
	<path class="b-logo__bottom-item b-logo__bottom-item--5" fill="#1D2A6C" d="M56.7,23.7h-1v-0.7h2.8v0.7h-1v2.9h-0.8L56.7,23.7z"/>
	<path class="b-logo__bottom-item b-logo__bottom-item--6" fill="#1D2A6C" d="M60.8,23.1v2.4l1.7-2.4h0.8v3.5h-0.8v-2.5l-1.7,2.5H60v-3.5H60.8z"/>
	<path class="b-logo__bottom-item b-logo__bottom-item--7" fill="#1D2A6C" d="M65,23.1h1.9c0.7,0,1,0.4,1,0.9c0,0.2,0,0.4-0.2,0.5c-0.1,0.1-0.3,0.3-0.5,0.3c0.2,0,0.4,0.2,0.5,0.3
		c0.1,0.2,0.2,0.4,0.2,0.6c0,0.5-0.4,1-1,1H65V23.1z M66.7,24.5c0.1,0,0.2,0,0.3-0.1c0.1-0.1,0.1-0.2,0.1-0.3s0-0.2-0.1-0.3
		c-0.1-0.1-0.2-0.1-0.3-0.1h-1v0.8H66.7z M66.8,26c0.3,0,0.5-0.2,0.5-0.4c0-0.1,0-0.1,0-0.2c0-0.1-0.1-0.1-0.1-0.1
		c0,0-0.1-0.1-0.1-0.1c-0.1,0-0.1,0-0.2,0h0h-1V26L66.8,26z"/>
	<path class="b-logo__bottom-item b-logo__bottom-item--8" fill="#1D2A6C" d="M72.1,25.1h-1.7v1.5h-0.8v-3.5h0.8v1.4h1.7v-1.4h0.8v3.5h-0.8L72.1,25.1z"/>
	<path class="b-logo__bottom-item b-logo__bottom-item--9" fill="#1D2A6C" d="M75.4,24.3h0.9c0.8,0,1.2,0.5,1.2,1.1s-0.4,1.1-1.2,1.1h-1.7v-3.6h0.8V24.3z M75.4,26h0.8
		c0.1,0,0.1,0,0.2,0c0.1,0,0.1-0.1,0.2-0.1c0,0,0.1-0.1,0.1-0.2c0-0.1,0-0.1,0-0.2c0-0.1,0-0.1,0-0.2c0-0.1-0.1-0.1-0.1-0.2
		c0,0-0.1-0.1-0.2-0.1c-0.1,0-0.1,0-0.2,0h-0.8V26z M77.8,23.1h0.8v3.5h-0.8V23.1z"/>
	<path class="b-logo__bottom-item b-logo__bottom-item--10" fill="#1D2A6C" d="M81.1,23.1v2.4l1.7-2.4h0.8v3.5h-0.8v-2.5l-1.7,2.5h-0.7v-3.5H81.1z M81,22.3l0.4-0.3
		c0.1,0.1,0.2,0.2,0.3,0.2c0.1,0.1,0.2,0.1,0.3,0.1c0.1,0,0.2,0,0.3-0.1c0.1-0.1,0.2-0.1,0.3-0.2l0.4,0.3c-0.1,0.1-0.3,0.3-0.4,0.4
		c-0.2,0.1-0.4,0.1-0.5,0.1c-0.2,0-0.4,0-0.5-0.1C81.2,22.6,81.1,22.5,81,22.3L81,22.3z"/>
	<path class="b-logo__bottom-item b-logo__bottom-item--11" fill="#1D2A6C" d="M88.8,25.2l-0.3,0.3v1.1h-0.8v-3.5h0.8v1.6l1.3-1.6h0.9l-1.4,1.7l1.5,1.9h-0.9L88.8,25.2z"/>
	<path class="b-logo__bottom-item b-logo__bottom-item--12" fill="#1D2A6C" d="M93.7,23c1.1,0,1.9,0.8,1.9,1.8c0,1.1-0.8,1.8-1.9,1.8c-1.1,0-1.9-0.8-1.9-1.8C91.8,23.8,92.6,23,93.7,23z
		 M93.7,23.7c-0.7,0-1.1,0.5-1.1,1.2c0,0.7,0.4,1.2,1.1,1.2c0.7,0,1.1-0.5,1.1-1.2C94.8,24.2,94.4,23.7,93.7,23.7z"/>
	<path class="b-logo__bottom-item b-logo__bottom-item--13" fill="#1D2A6C" d="M100.3,24.1l-1,2.6h-0.3l-1-2.6v2.6h-0.8v-3.5h1.1l0.9,2.2l0.9-2.2h1.1v3.5h-0.8L100.3,24.1z"/>
	<path class="b-logo__bottom-item b-logo__bottom-item--14" fill="#1D2A6C" d="M105.3,23.7h-1.7v2.9h-0.8v-3.5h3.2v3.5h-0.8V23.7z"/>
	<path class="b-logo__bottom-item b-logo__bottom-item--15" fill="#1D2A6C" d="M108.4,24.1l0.1-1.1h2.5v3.5h-0.8v-2.9h-1.1l0,0.5c-0.2,2.2-0.8,2.5-1.5,2.5V26
		C108,26,108.3,25.7,108.4,24.1z"/>
	<path class="b-logo__bottom-item b-logo__bottom-item--16" fill="#1D2A6C" d="M112.8,23.1h2.5v0.6h-1.8v0.8h1.7v0.6h-1.7V26h1.8v0.7h-2.5V23.1z"/>
	<path class="b-logo__bottom-item b-logo__bottom-item--17" fill="#1D2A6C" d="M118,25.2l-0.3,0.3v1.1H117v-3.5h0.8v1.6l1.3-1.6h0.9l-1.4,1.7l1.5,1.9h-0.9L118,25.2z"/>
	<path class="b-logo__bottom-item b-logo__bottom-item--18" fill="#1D2A6C" d="M121.1,24.9c0-1.1,0.8-1.8,1.9-1.8c0.3,0,0.6,0.1,0.9,0.2c0.3,0.2,0.5,0.4,0.6,0.7l-0.7,0.3
		c-0.1-0.2-0.2-0.3-0.4-0.4s-0.3-0.1-0.5-0.1c-0.6,0-1.1,0.5-1.1,1.2c0,0.7,0.5,1.2,1.1,1.2c0.2,0,0.4,0,0.5-0.1
		c0.2-0.1,0.3-0.2,0.4-0.4l0.7,0.3c-0.1,0.3-0.4,0.5-0.6,0.7c-0.3,0.2-0.6,0.2-0.9,0.2C121.9,26.7,121.1,25.9,121.1,24.9z"/>
</g>
<path class="b-logo__left b-logo__left--2" fill="none" stroke="#1B2661" stroke-width="3" d="M0,14.8c0.4,0,2-0.8,5.8-1c3.8-0.2,15.2,5.1,18.7,5.7c3.5,0.6,5.5,0,5.9,0"
	/>
<path class="b-logo__left b-logo__left--1" fill="none" stroke="#1B2661" stroke-width="3" d="M14.9,26.7c0,0-6.9,0-9.2,0s-4.3-1.8-4.3-4.4s2.9-3.5,4.7-3.5
	s9.2,2.7,14.8,4.7c6.3,2.3,9.2,1.1,9.5,1.1"/>
<path class="b-logo__left b-logo__left--3" fill="none" stroke="#1B2661" stroke-width="3" d="M15.8,6c0,0,7.2,0,9.6,0s4.8,1.6,4.8,4.4s-2.2,4-4.1,4S15.8,10.6,10,9.2
	c-4.6-1.1-9.7,0-10,0"/>
</svg>
