<svg width="232" height="33" viewBox="0 0 232 33" fill="none" xmlns="http://www.w3.org/2000/svg">
<path d="M9.43847 11.1117C13.2016 11.9369 16.5896 13.251 19.8658 14.53C21.2682 15.0756 22.7195 15.6394 24.177 16.1575C24.9258 16.4308 25.7159 16.5744 26.5132 16.5823C27.248 16.5917 27.9766 16.4469 28.6517 16.1573C29.3269 15.8678 29.9336 15.4399 30.4325 14.9014C31.1987 14.0724 31.7095 13.0407 31.9036 11.9296C32.0977 10.8185 31.967 9.67506 31.5271 8.63617C30.5657 6.44793 28.3611 5.19336 25.4599 5.19336H16.0813V7.99436H25.4599C27.2175 7.99436 28.456 8.61783 28.949 9.75168C29.166 10.2911 29.2276 10.8803 29.1266 11.4528C29.0257 12.0253 28.7664 12.5582 28.3779 12.9912C27.6017 13.8241 26.4734 14.0044 25.1139 13.5184C23.6963 13.0157 22.2648 12.4579 20.8824 11.9201C17.5051 10.6151 14.0145 9.25199 10.0386 8.38097C6.80446 7.64491 3.4379 7.72104 0.240479 8.60255V11.5426C3.21003 10.566 6.39032 10.417 9.43847 11.1117Z" fill="#1B2661"/>
<path d="M22.9876 18.5289C21.1603 17.8711 19.6298 17.2481 18.1514 16.6464C15.2726 15.4762 12.7948 14.4637 9.22273 13.6255C5.52667 12.757 2.50402 13.3042 0.240479 14.2318V17.3133C2.11682 16.3114 4.94051 15.4747 8.57381 16.3296C11.924 17.1163 14.3161 18.0894 17.0847 19.2095C18.5906 19.8158 20.1456 20.4554 22.0281 21.1345C23.8638 21.7895 25.7977 22.1343 27.7489 22.1546C28.7751 22.1681 29.7981 22.0395 30.7884 21.7726V18.8094C28.7192 19.8022 25.3063 19.3656 22.9876 18.5289Z" fill="#1B2661"/>
<path d="M29.7026 24.5369C28.2258 24.7297 25.8067 24.7282 22.6775 23.6258C20.8555 22.9835 19.3177 22.3883 17.8347 21.8128C15.0461 20.7316 12.4132 19.7112 8.51884 18.6377C4.30071 17.476 2.06795 19.4333 1.30435 20.3277C0.632522 21.1095 0.198706 22.0655 0.0537286 23.0837C-0.0912484 24.1019 0.0586183 25.1401 0.48577 26.0766C0.95462 27.0833 2.49404 29.4263 6.64496 29.4263H15.1973V26.643H6.64496C4.83218 26.643 3.5478 26.0265 3.0255 24.9074C2.82196 24.453 2.75264 23.9505 2.82566 23.4584C2.89867 22.9664 3.11101 22.5051 3.43784 22.1286C4.31751 21.0991 5.89664 20.803 7.77051 21.3193C11.5335 22.3564 14.1023 23.351 16.8222 24.4063C18.328 24.9894 19.8766 25.5922 21.7474 26.2482C25.6754 27.633 28.7557 27.5556 30.7884 27.179V24.3364C30.4305 24.4231 30.068 24.49 29.7026 24.5369Z" fill="#1B2661"/>
<path d="M55.5463 26.1648L49.8383 12.6649L43.9856 26.1648H39.8212L47.7047 7.96094H52.135L60.0186 26.1648H55.5463Z" fill="#1B2661"/>
<path d="M82.6083 7.96191V26.1658H78.5114V23.8149C77.0658 25.5515 74.9322 26.4059 72.4186 26.4059C67.0557 26.4059 63.1244 22.7111 63.1244 17.0627C63.1244 11.4142 67.0487 7.76562 72.4186 7.76562C74.7504 7.76562 76.8256 8.55077 78.3063 10.1857V7.96191H82.6083ZM78.3739 17.0627C78.3739 13.5988 76.0422 11.3704 72.9013 11.3704C69.7605 11.3704 67.4614 13.5873 67.4614 17.0627C67.4614 20.5381 69.7931 22.7573 72.9013 22.7573C76.0095 22.7573 78.3739 20.5404 78.3739 17.0627Z" fill="#1B2661"/>
<path d="M104.398 20.8128C104.398 24.1889 100.714 26.4727 95.5866 26.4727C92.7629 26.4727 89.9415 25.78 87.738 24.563L88.9762 21.3901C90.9456 22.4314 93.1442 22.9748 95.3768 22.9719C98.2331 22.9719 99.9889 22.0482 99.9889 20.4849C99.9889 19.0531 98.6808 18.268 96.3747 18.268H92.7979V15.386H96.0343C98.2028 15.386 99.4759 14.6355 99.4759 13.3077C99.4759 11.9799 97.9277 11.1601 95.3441 11.1601C93.4787 11.1601 91.5574 11.6012 89.5148 12.4879L88.4236 9.34732C90.6998 8.25768 93.1937 7.68716 95.7219 7.67773C100.437 7.67773 103.883 9.68909 103.883 12.6888C103.883 14.4623 102.677 15.9218 100.784 16.6769C103.055 17.3373 104.398 18.8014 104.398 20.8128Z" fill="#1B2661"/>
<path d="M151.625 17.0968C151.625 22.6552 147.976 26.4054 142.573 26.4054C140.025 26.4054 137.994 25.551 136.583 23.983V32.7789H132.246V17.1314C132.246 11.5407 136.21 7.75586 142.091 7.75586C147.841 7.7651 151.625 11.4391 151.625 17.0968ZM147.358 17.0968C147.358 13.723 145.155 11.3698 141.918 11.3698C138.682 11.3698 136.513 13.6537 136.513 17.0621C136.513 20.4706 138.682 22.7914 141.918 22.7914C145.155 22.7914 147.358 20.466 147.358 17.0968Z" fill="#1B2661"/>
<path d="M157.648 7.96094H161.952V15.3505H171.211V7.96094H175.513V26.1648H171.211V18.9715H161.952V26.1648H157.648V7.96094Z" fill="#1B2661"/>
<path d="M199.197 19.9691C199.197 23.9594 196.376 26.2433 191.348 26.204L183.019 26.1694V7.96094H187.321V13.9257L191.969 13.9604C196.683 13.965 199.197 16.1773 199.197 19.9691ZM194.86 19.9021C194.86 17.8238 193.517 16.9347 190.971 16.9001L187.321 16.8654V23.0288L190.971 23.0635C193.484 23.0981 194.86 22.0058 194.86 19.8929V19.9021ZM201.573 7.96094H205.875V26.1648H201.573V7.96094Z" fill="#1B2661"/>
<path d="M213.379 7.96142H217.683V19.9695L227.838 7.96142H231.762V26.1653H227.458V14.1571L217.338 26.1653H213.374L213.379 7.96142ZM216.545 0.802734H219.404C219.436 2.43769 220.469 3.46068 222.26 3.46068C224.016 3.46068 225.116 2.43769 225.151 0.802734H228.078C228.008 4.10958 225.979 5.81381 222.295 5.81381C218.611 5.81381 216.58 4.10958 216.545 0.802734Z" fill="#1B2661"/>
<path d="M113.389 32.9323H117.575L128.56 7.87695H124.428L118.612 21.3422L112.827 7.87695H108.355L116.376 26.1501L113.389 32.9323Z" fill="#1B2661"/>
</svg>
