<svg width="373" height="348" viewBox="0 0 373 348" fill="none" xmlns="http://www.w3.org/2000/svg">
<g opacity="0.1">
<path d="M127.145 33.1615C105.929 37.7851 86.8289 45.1486 68.3584 52.3152C60.4523 55.3719 52.2701 58.5313 44.0533 61.4339C39.8315 62.9653 35.3772 63.7703 30.8823 63.8142C26.7398 63.8669 22.6324 63.0557 18.8261 61.4332C15.0198 59.8107 11.5995 57.4131 8.78676 54.3958C4.46681 49.7511 1.58736 43.97 0.49292 37.7442C-0.601517 31.5185 0.135422 25.1118 2.61555 19.2907C8.03586 7.02958 20.4646 0 36.8205 0H89.6944V15.6945H36.8205C26.912 15.6945 19.9295 19.1879 17.1503 25.5411C15.9267 28.5634 15.5797 31.8651 16.1486 35.0728C16.7175 38.2806 18.1796 41.2665 20.3696 43.693C24.7456 48.3594 31.1067 49.3697 38.7711 46.647C46.7635 43.83 54.8335 40.7048 62.6273 37.6909C81.6675 30.3787 101.346 22.7413 123.761 17.8608C141.994 13.7365 160.974 14.1631 179 19.1023V35.576C162.259 30.1041 144.329 29.2692 127.145 33.1615Z" fill="#00AECD"/>
<path d="M50.922 74.1585C61.211 70.4274 69.8283 66.8941 78.1525 63.4811C94.3615 56.8442 108.313 51.1015 128.425 46.3473C149.236 41.4213 166.255 44.5248 179 49.7861V67.2638C168.435 61.5812 152.536 56.8356 132.079 61.6843C113.216 66.1461 99.7473 71.6654 84.1587 78.0186C75.6794 81.4573 66.9242 85.0853 56.3251 88.9367C45.9886 92.6517 35.0999 94.6075 24.1138 94.7224C18.3359 94.7989 12.5757 94.0697 7 92.556V75.749C18.6505 81.38 37.8669 78.904 50.922 74.1585Z" fill="#00AECD"/>
<path d="M47.922 106.067C58.211 102.336 66.8283 98.8023 75.1525 95.3893C91.3615 88.7524 105.313 83.0097 125.425 78.2556C146.236 73.3295 163.255 76.433 176 81.6943V99.172C165.435 93.4894 149.536 88.7438 129.079 93.5925C110.216 98.0543 96.7473 103.574 81.1587 109.927C72.6794 113.366 63.9242 116.993 53.3251 120.845C42.9886 124.56 32.0999 126.516 21.1138 126.631C15.3359 126.707 9.57565 125.978 4 124.464V107.657C15.6505 113.288 34.8669 110.812 47.922 106.067Z" fill="#00AECD"/>
<path d="M48.922 136.978C59.211 133.247 67.8283 129.713 76.1525 126.3C92.3615 119.664 106.313 113.921 126.425 109.167C147.236 104.241 164.255 107.344 177 112.605V130.083C166.435 124.4 150.536 119.655 130.079 124.504C111.216 128.965 97.7473 134.485 82.1587 140.838C73.6794 144.277 64.9242 147.905 54.3251 151.756C43.9886 155.471 33.0999 157.427 22.1138 157.542C16.3359 157.618 10.5757 156.889 5 155.375V138.568C16.6505 144.199 35.8669 141.723 48.922 136.978Z" fill="#00AECD"/>
<path d="M48.922 168.886C59.211 165.155 67.8283 161.622 76.1525 158.209C92.3615 151.572 106.313 145.829 126.425 141.075C147.236 136.149 164.255 139.252 177 144.514V161.991C166.435 156.309 150.536 151.563 130.079 156.412C111.216 160.874 97.7473 166.393 82.1587 172.746C73.6794 176.185 64.9242 179.813 54.3251 183.664C43.9886 187.379 33.0999 189.335 22.1138 189.45C16.3359 189.526 10.5757 188.797 5 187.284V170.476C16.6505 176.108 35.8669 173.632 48.922 168.886Z" fill="#00AECD"/>
<path d="M48.922 200.795C59.211 197.064 67.8283 193.53 76.1525 190.117C92.3615 183.48 106.313 177.738 126.425 172.984C147.236 168.058 164.255 171.161 177 176.422V193.9C166.435 188.217 150.536 183.472 130.079 188.321C111.216 192.782 97.7473 198.302 82.1587 204.655C73.6794 208.094 64.9242 211.721 54.3251 215.573C43.9886 219.288 33.0999 221.244 22.1138 221.359C16.3359 221.435 10.5757 220.706 5 219.192V202.385C16.6505 208.016 35.8669 205.54 48.922 200.795Z" fill="#00AECD"/>
<path d="M48.922 232.703C59.211 228.972 67.8283 225.439 76.1525 222.026C92.3615 215.389 106.313 209.646 126.425 204.892C147.236 199.966 164.255 203.069 177 208.331V225.808C166.435 220.126 150.536 215.38 130.079 220.229C111.216 224.691 97.7473 230.21 82.1587 236.563C73.6794 240.002 64.9242 243.63 54.3251 247.481C43.9886 251.196 33.0999 253.152 22.1138 253.267C16.3359 253.343 10.5757 252.614 5 251.1V234.293C16.6505 239.924 35.8669 237.448 48.922 232.703Z" fill="#00AECD"/>
<path d="M13.1366 268.035C21.4827 269.104 35.1541 269.096 52.8388 262.982C63.1355 259.419 71.8268 256.118 80.2075 252.926C95.9675 246.93 110.847 241.271 132.856 235.317C156.695 228.875 169.313 239.73 173.629 244.69C177.425 249.026 179.877 254.328 180.696 259.975C181.516 265.622 180.669 271.38 178.255 276.574C175.605 282.158 166.905 295.152 143.446 295.152H95.1131V279.715H143.446C153.691 279.715 160.95 276.296 163.901 270.089C165.052 267.57 165.444 264.782 165.031 262.053C164.618 259.325 163.418 256.766 161.571 254.678C156.6 248.968 147.675 247.326 137.085 250.189C115.819 255.941 101.301 261.457 85.9298 267.31C77.4197 270.544 68.6679 273.888 58.095 277.526C35.8963 285.206 18.4877 284.777 7 282.688V266.923C9.02296 267.404 11.0716 267.775 13.1366 268.035Z" fill="#00AECD"/>
<path d="M321.145 127.889C299.929 132.513 280.829 139.877 262.358 147.043C254.452 150.1 246.27 153.259 238.053 156.162C233.832 157.693 229.377 158.498 224.882 158.542C220.74 158.595 216.632 157.784 212.826 156.161C209.02 154.539 205.599 152.141 202.787 149.124C198.467 144.479 195.587 138.698 194.493 132.472C193.398 126.247 194.135 119.84 196.616 114.019C202.036 101.758 214.465 94.728 230.82 94.728H283.694V110.423H230.82C220.912 110.423 213.929 113.916 211.15 120.269C209.927 123.291 209.58 126.593 210.149 129.801C210.718 133.009 212.18 135.994 214.37 138.421C218.746 143.087 225.107 144.098 232.771 141.375C240.763 138.558 248.833 135.433 256.627 132.419C275.667 125.107 295.346 117.469 317.761 112.589C335.994 108.465 354.974 108.891 373 113.83V130.304C356.259 124.832 338.329 123.997 321.145 127.889Z" fill="#00AECD"/>
<path d="M244.922 168.887C255.211 165.155 263.828 161.622 272.153 158.209C288.362 151.572 302.313 145.829 322.425 141.075C343.236 136.149 360.255 139.253 373 144.514V161.992C362.435 156.309 346.536 151.564 326.079 156.412C307.216 160.874 293.747 166.393 278.159 172.747C269.679 176.185 260.924 179.813 250.325 183.665C239.989 187.38 229.1 189.336 218.114 189.45C212.336 189.527 206.576 188.798 201 187.284V170.477C212.65 176.108 231.867 173.632 244.922 168.887Z" fill="#00AECD"/>
<path d="M241.922 200.795C252.211 197.064 260.828 193.531 269.153 190.118C285.362 183.481 299.313 177.738 319.425 172.984C340.236 168.058 357.255 171.162 370 176.423V193.9C359.435 188.218 343.536 183.472 323.079 188.321C304.216 192.783 290.747 198.302 275.159 204.655C266.679 208.094 257.924 211.722 247.325 215.573C236.989 219.288 226.1 221.244 215.114 221.359C209.336 221.436 203.576 220.706 198 219.193V202.386C209.65 208.017 228.867 205.541 241.922 200.795Z" fill="#00AECD"/>
<path d="M242.922 231.706C253.211 227.975 261.828 224.442 270.153 221.029C286.362 214.392 300.313 208.649 320.425 203.895C341.236 198.969 358.255 202.073 371 207.334V224.812C360.435 219.129 344.536 214.383 324.079 219.232C305.216 223.694 291.747 229.213 276.159 235.566C267.679 239.005 258.924 242.633 248.325 246.485C237.989 250.2 227.1 252.155 216.114 252.27C210.336 252.347 204.576 251.618 199 250.104V233.297C210.65 238.928 229.867 236.452 242.922 231.706Z" fill="#00AECD"/>
<path d="M242.922 263.615C253.211 259.883 261.828 256.35 270.153 252.937C286.362 246.3 300.313 240.558 320.425 235.803C341.236 230.877 358.255 233.981 371 239.242V256.72C360.435 251.037 344.536 246.292 324.079 251.14C305.216 255.602 291.747 261.121 276.159 267.475C267.679 270.913 258.924 274.541 248.325 278.393C237.989 282.108 227.1 284.064 216.114 284.179C210.336 284.255 204.576 283.526 199 282.012V265.205C210.65 270.836 229.867 268.36 242.922 263.615Z" fill="#00AECD"/>
<path d="M242.922 295.523C253.211 291.792 261.828 288.258 270.153 284.845C286.362 278.208 300.313 272.466 320.425 267.712C341.236 262.786 358.255 265.889 371 271.15V288.628C360.435 282.945 344.536 278.2 324.079 283.049C305.216 287.51 291.747 293.03 276.159 299.383C267.679 302.822 258.924 306.45 248.325 310.301C237.989 314.016 227.1 315.972 216.114 316.087C210.336 316.163 204.576 315.434 199 313.92V297.113C210.65 302.744 229.867 300.268 242.922 295.523Z" fill="#00AECD"/>
<path d="M242.922 327.431C253.211 323.7 261.828 320.167 270.153 316.754C286.362 310.117 300.313 304.374 320.425 299.62C341.236 294.694 358.255 297.797 371 303.059V320.536C360.435 314.854 344.536 310.108 324.079 314.957C305.216 319.419 291.747 324.938 276.159 331.291C267.679 334.73 258.924 338.358 248.325 342.209C237.989 345.924 227.1 347.88 216.114 347.995C210.336 348.071 204.576 347.342 199 345.828V329.021C210.65 334.652 229.867 332.177 242.922 327.431Z" fill="#00AECD"/>
</g>
</svg>
