<svg width="94" height="91" viewBox="0 0 94 91" fill="none" xmlns="http://www.w3.org/2000/svg">
<path d="M30.5803 87.6556L31.8962 87.5037C31.9155 87.5983 31.941 87.6988 31.9728 87.8053C32.1452 88.2935 32.5024 88.6127 33.0445 88.7632C33.585 88.9453 34.0562 88.8805 34.4582 88.5688C34.7985 88.3268 35.071 87.8988 35.2757 87.2847C35.451 86.6616 35.4658 86.1544 35.3201 85.7631C35.1556 85.3016 34.8009 84.9871 34.256 84.8197C33.711 84.6523 33.2373 84.7123 32.8347 84.9996C32.7628 85.05 32.69 85.1163 32.6164 85.1985L31.6017 84.3307C31.8021 84.1505 31.9623 84.0224 32.0823 83.9465C32.447 83.7039 32.8553 83.5553 33.3072 83.5007C33.7496 83.4512 34.1857 83.5006 34.6157 83.6488C35.5577 83.914 36.2008 84.4702 36.545 85.3174C36.8398 86.0366 36.8549 86.8269 36.5902 87.6885C36.3278 88.5428 35.8704 89.1921 35.2182 89.6364C34.4719 90.1244 33.6275 90.2236 32.6849 89.934C31.7423 89.6445 31.0991 89.0883 30.7555 88.2655C30.6677 88.0531 30.6092 87.8498 30.5803 87.6556Z" fill="#1B2661"/>
<path d="M21.7639 84.6558L20.7566 84.0895L23.8044 78.6445L24.9527 79.2901L23.2709 82.2817L26.0207 80.7388L26.6754 81.1069L26.7863 84.258L28.4682 81.2664L29.6165 81.9119L26.5586 87.3513L25.5412 86.7794L25.3904 82.6381L21.7639 84.6558Z" fill="#1B2661"/>
<path d="M17.5316 74.2755C18.4083 74.1422 19.2159 74.408 19.9545 75.0729C20.6931 75.7378 21.0449 76.5157 21.0098 77.4067C20.9691 78.1889 20.6472 78.9149 20.0441 79.5848C19.4411 80.2547 18.7527 80.6508 17.9791 80.7733C17.0967 80.9014 16.2862 80.6331 15.5476 79.9682C14.7976 79.293 14.4487 78.5176 14.5009 77.6421C14.5359 76.8548 14.855 76.1261 15.458 75.4563C16.0456 74.8036 16.7368 74.41 17.5316 74.2755ZM17.7625 75.5562C17.325 75.6392 16.8975 75.9125 16.48 76.3763C16.0574 76.8458 15.8277 77.3024 15.791 77.7462C15.7514 78.2392 15.9435 78.6764 16.3672 79.0578C16.7966 79.4444 17.2515 79.5896 17.7319 79.4935C18.1694 79.4105 18.5995 79.1343 19.0221 78.6648C19.4396 78.201 19.6667 77.7473 19.7034 77.3035C19.7539 76.8099 19.5644 76.3698 19.135 75.9833C18.717 75.607 18.2595 75.4646 17.7625 75.5562Z" fill="#1B2661"/>
<path d="M7.77797 70.6236L8.70681 69.9361L9.96481 71.6359L14.0517 68.6112L14.8216 69.6515L10.7347 72.6762L11.9927 74.376L11.0639 75.0634L7.77797 70.6236Z" fill="#1B2661"/>
<path d="M4.46286 62.2599C4.8088 61.58 5.40416 61.043 6.24894 60.649C7.10071 60.2518 7.89121 60.1423 8.62045 60.3207C9.45579 60.5262 10.064 61.0373 10.4449 61.8542C10.7445 62.4965 10.8207 63.1155 10.6735 63.7111L13.5535 62.3679L14.1054 63.5513L5.93684 67.3612L5.4484 66.3139L5.93014 66.0892C5.27957 65.8061 4.79961 65.333 4.49027 64.6697C4.09626 63.8249 4.08712 63.0216 4.46286 62.2599ZM8.33744 61.6003C7.91907 61.5234 7.41665 61.6217 6.83019 61.8953C6.24373 62.1688 5.84365 62.4957 5.62995 62.8758C5.37342 63.31 5.37378 63.8028 5.63103 64.3544C5.85897 64.8431 6.19376 65.1417 6.6354 65.2503C7.10775 65.37 7.65461 65.2849 8.27598 64.9951C8.90433 64.7021 9.31745 64.3394 9.51533 63.9071C9.70996 63.4678 9.69331 63.0038 9.46537 62.515C9.22115 61.9914 8.84517 61.6865 8.33744 61.6003Z" fill="#1B2661"/>
<path d="M5.4136 56.3504C5.86758 56.1925 6.20023 55.987 6.41155 55.7339C6.73435 55.345 6.83375 54.8763 6.70975 54.3278C6.58746 53.7867 6.29697 53.4101 5.8383 53.1979C5.81987 53.1862 5.72618 53.1561 5.55721 53.1074L5.81287 51.7227C6.03202 51.7838 6.22741 51.862 6.39906 51.9575C6.79422 52.1683 7.12493 52.4608 7.39117 52.835C7.6482 53.2034 7.81931 53.611 7.9045 54.0577C8.09283 55.0656 7.93086 55.9038 7.41857 56.5725C6.92203 57.206 6.24 57.6129 5.37247 57.7932C4.45066 57.9779 3.65992 57.9039 3.00026 57.5712C2.20581 57.1664 1.69903 56.4793 1.47992 55.5099C1.26081 54.5406 1.42364 53.7061 1.9684 53.0064C2.4458 52.393 3.12783 51.9861 4.0145 51.7857C4.09715 51.767 4.21532 51.7482 4.369 51.7292L5.4136 56.3504ZM2.67467 55.2399C2.78363 55.7918 3.07497 56.1722 3.54867 56.381C3.77971 56.4947 4.05982 56.5459 4.389 56.5346L3.66797 53.3449C3.36597 53.4763 3.13511 53.6431 2.97542 53.845C2.6376 54.2373 2.53735 54.7022 2.67467 55.2399Z" fill="#1B2661"/>
<path d="M0.53186 43.3942L1.68715 43.3692L1.7328 45.4834L6.81606 45.3737L6.84399 46.6676L1.76073 46.7773L1.80638 48.8915L0.651098 48.9165L0.53186 43.3942Z" fill="#1B2661"/>
<path d="M0.923037 39.692L1.14908 38.3942L3.24376 38.7591L3.52135 37.1653C3.62446 36.5733 3.89434 36.1238 4.33099 35.8167C4.7792 35.4881 5.30309 35.376 5.90266 35.4805C6.50222 35.5849 6.95738 35.8675 7.26811 36.3282C7.5739 36.7725 7.6759 37.2868 7.57412 37.8712L7.07049 40.7627L0.923037 39.692ZM4.46187 38.9712L6.08981 39.2548L6.35748 37.7179C6.38328 37.48 6.32839 37.2789 6.19281 37.1145C6.06745 36.9363 5.89473 36.828 5.67464 36.7896C5.46972 36.754 5.27502 36.7943 5.09052 36.9108C4.88821 37.0397 4.76788 37.2143 4.72955 37.4344L4.46187 38.9712Z" fill="#1B2661"/>
<path d="M5.1567 25.46L6.60834 22.7375C6.88573 22.2219 7.23885 21.8826 7.66768 21.7197C8.19093 21.5113 8.69679 21.5385 9.18525 21.8013C9.48375 21.9619 9.71001 22.1755 9.86402 22.4421C9.87029 22.4629 9.88308 22.4961 9.9024 22.5415C9.91859 22.5764 9.93478 22.6114 9.95096 22.6463C9.96037 22.6776 9.96977 22.7089 9.97917 22.7402C10.2343 22.6238 10.467 22.5653 10.6772 22.5647C11.0127 22.5265 11.3297 22.5877 11.6282 22.7483C12.1302 23.0184 12.4348 23.4359 12.542 24.0009C12.6256 24.4309 12.5652 24.8358 12.3608 25.2157L10.6417 28.411L5.1567 25.46ZM6.68653 24.7872L8.0705 25.5318L8.90816 23.9748C9.02861 23.7509 9.03689 23.5323 8.93298 23.319C8.8484 23.151 8.72444 23.0318 8.5611 22.9614C8.39828 22.8738 8.23053 22.836 8.05783 22.8481C7.82252 22.879 7.64465 23.0063 7.5242 23.2302L6.68653 24.7872ZM8.97618 26.0191L10.3601 26.7636L11.3402 24.9421C11.457 24.725 11.472 24.51 11.3853 24.2972C11.3008 24.1292 11.1737 23.9996 11.0041 23.9083C10.8345 23.8171 10.6563 23.7825 10.4695 23.8044C10.2441 23.8494 10.0657 23.994 9.9343 24.2382L8.97618 26.0191Z" fill="#1B2661"/>
<path d="M13.541 13.3052L18.3096 17.3299L17.4599 18.3366L14.2808 15.6535L15.5221 20.6326L14.7767 21.5157L10.0082 17.491L10.8578 16.4843L13.9662 19.1078L12.8031 14.1794L13.541 13.3052Z" fill="#1B2661"/>
<path d="M21.0771 7.00731L24.1278 10.9733L24.5491 10.6492L25.782 12.2521L24.8112 12.9989L24.3321 12.376L21.1538 14.8208L21.6329 15.4437L20.6528 16.1975L19.4199 14.5946C19.9511 14.186 19.8534 13.3767 19.1268 12.1668L17.624 9.66346L21.0771 7.00731ZM23.1477 11.7271L20.8016 8.6771L19.1804 9.92415L20.1618 11.5601C20.6479 12.3817 20.883 13.0221 20.8671 13.4815L23.1477 11.7271Z" fill="#1B2661"/>
<path d="M27.4604 7.37064C27.7133 7.77941 27.9863 8.05939 28.2793 8.21059C28.7291 8.44106 29.2082 8.43612 29.7166 8.19578C30.2181 7.95873 30.5225 7.59328 30.6299 7.09942C30.6372 7.0789 30.6463 6.98089 30.657 6.80538L32.0642 6.75372C32.0523 6.9809 32.0184 7.18864 31.9625 7.37694C31.8427 7.80849 31.6292 8.19491 31.3218 8.53618C31.0182 8.86719 30.6576 9.12285 30.2401 9.30317C29.2973 9.70623 28.4439 9.73048 27.6798 9.37591C26.9535 9.02906 26.4079 8.45187 26.0432 7.64434C25.6625 6.78477 25.5627 5.99687 25.7439 5.28065C25.9663 4.41715 26.5267 3.77305 27.4251 3.34833C28.3236 2.92362 29.1735 2.90102 29.975 3.28054C30.6775 3.61308 31.223 4.19026 31.6115 5.0121C31.6478 5.08871 31.6918 5.19996 31.7437 5.34584L27.4604 7.37064ZM27.9486 4.45572C27.4336 4.68214 27.1257 5.04924 27.0249 5.55703C26.9642 5.80725 26.9752 6.09179 27.0578 6.41065L30.0143 5.01304C29.8203 4.74686 29.6074 4.5578 29.3755 4.44586C28.9191 4.20146 28.4435 4.20474 27.9486 4.45572Z" fill="#1B2661"/>
<path d="M40.379 5.04586C39.9857 5.84066 39.305 6.35011 38.3368 6.57424C37.3686 6.79836 36.5295 6.64072 35.8195 6.10132C35.2019 5.6196 34.7915 4.93969 34.5882 4.06158C34.385 3.18346 34.4549 2.39235 34.7979 1.68825C35.1987 0.891714 35.8832 0.381386 36.8513 0.157263C37.8345 -0.0703354 38.6699 0.0881712 39.3574 0.632783C39.9825 1.11277 40.3967 1.79181 40.5999 2.66993C40.798 3.52552 40.7243 4.3175 40.379 5.04586ZM39.1972 4.50101C39.38 4.09496 39.401 3.58797 39.2602 2.98005C39.1178 2.36462 38.8752 1.91469 38.5326 1.63026C38.1513 1.31525 37.683 1.22203 37.1276 1.3506C36.5647 1.4809 36.185 1.77045 35.9884 2.21923C35.8056 2.62528 35.7854 3.13602 35.9279 3.75145C36.0686 4.35938 36.3103 4.80555 36.6529 5.08999C37.0285 5.41424 37.4977 5.51121 38.0606 5.38091C38.6085 5.25408 38.9873 4.96078 39.1972 4.50101Z" fill="#1B2661"/>
<path d="M60.097 2.42583L58.7967 2.67875C58.7702 2.58595 58.7369 2.4877 58.6971 2.384C58.4875 1.91061 58.1067 1.61986 57.5546 1.51173C57.0017 1.37185 56.5369 1.4728 56.1602 1.81459C55.8396 2.08213 55.6009 2.52992 55.4441 3.15795C55.3175 3.79272 55.3419 4.29956 55.5174 4.67845C55.717 5.12591 56.0949 5.41207 56.6511 5.53692C57.2073 5.66176 57.6751 5.56541 58.0543 5.24786C58.1221 5.19202 58.1895 5.1203 58.2565 5.03271L59.3352 5.81961C59.1493 6.01475 58.9995 6.15481 58.8856 6.23979C58.5408 6.50979 58.1452 6.68944 57.6988 6.77873C57.2616 6.8622 56.823 6.84664 56.3829 6.73207C55.4232 6.54035 54.7391 6.03546 54.3305 5.21739C53.9811 4.52311 53.905 3.73624 54.1024 2.85679C54.2981 1.98486 54.704 1.30221 55.32 0.80885C56.0264 0.264712 56.8607 0.10062 57.8228 0.316574C58.785 0.532527 59.4691 1.03742 59.8752 1.83125C59.9792 2.03619 60.0531 2.23439 60.097 2.42583Z" fill="#1B2661"/>
<path d="M69.1186 4.73622L70.1666 5.22307L67.5481 10.8871L66.3534 10.3321L67.7993 7.21954L65.1768 8.97003L64.4956 8.65357L64.1418 5.52043L62.6959 8.63296L61.5012 8.07794L64.1302 2.4188L65.1886 2.91052L65.6586 7.02779L69.1186 4.73622Z" fill="#1B2661"/>
<path d="M74.1393 14.7589C73.2755 14.9595 72.4498 14.7568 71.6621 14.1509C70.8744 13.545 70.4636 12.7965 70.4298 11.9055C70.4101 11.1225 70.675 10.3738 71.2245 9.65935C71.7741 8.94492 72.4298 8.49682 73.1916 8.31504C74.0615 8.11917 74.8903 8.32419 75.678 8.9301C76.4779 9.5454 76.8856 10.2915 76.9011 11.1685C76.927 11.9562 76.6651 12.7072 76.1156 13.4216C75.5801 14.1177 74.9214 14.5635 74.1393 14.7589ZM73.8103 13.4999C74.2401 13.3834 74.6452 13.0778 75.0256 12.5832C75.4108 12.0825 75.6045 11.6095 75.6069 11.1642C75.6083 10.6696 75.383 10.2486 74.9312 9.90098C74.4732 9.54871 74.0085 9.43903 73.5369 9.57196C73.1071 9.68845 72.6996 9.99705 72.3145 10.4978C71.934 10.9924 71.7426 11.4623 71.7403 11.9076C71.7281 12.4036 71.951 12.8277 72.4089 13.18C72.8547 13.5229 73.3218 13.6295 73.8103 13.4999Z" fill="#1B2661"/>
<path d="M84.1457 17.6472L83.2727 18.4043L81.8872 16.8067L78.046 20.1378L77.1981 19.16L81.0393 15.8289L79.6539 14.2313L80.5269 13.4742L84.1457 17.6472Z" fill="#1B2661"/>
<path d="M88.0965 25.73C87.804 26.4346 87.2519 27.0159 86.44 27.4739C85.6215 27.9357 84.8418 28.1058 84.1009 27.9842C83.2522 27.8439 82.6064 27.3812 82.1635 26.5962C81.8153 25.9789 81.6916 25.3677 81.7923 24.7624L79.0246 26.3239L78.383 25.1866L86.2332 20.7577L86.801 21.7641L86.338 22.0253C87.0085 22.2574 87.5235 22.6921 87.8832 23.3295C88.3412 24.1413 88.4123 24.9415 88.0965 25.73ZM84.2843 26.6867C84.7074 26.731 85.2007 26.5942 85.7643 26.2762C86.3279 25.9583 86.7016 25.6015 86.8853 25.206C87.1076 24.7533 87.0692 24.2619 86.7701 23.7319C86.5052 23.2622 86.1483 22.9903 85.6996 22.9162C85.2194 22.8333 84.6808 22.9603 84.0836 23.2972C83.4798 23.6379 83.0959 24.0314 82.9319 24.4777C82.7718 24.9307 82.8242 25.392 83.0892 25.8617C83.3731 26.3649 83.7715 26.6399 84.2843 26.6867Z" fill="#1B2661"/>
<path d="M87.6047 31.6953C87.1642 31.8877 86.8484 32.1183 86.6572 32.387C86.3654 32.7996 86.3025 33.2746 86.4685 33.8119C86.6322 34.3419 86.9508 34.695 87.4245 34.8712C87.4438 34.8814 87.5395 34.9042 87.7118 34.9397L87.5637 36.34C87.3405 36.296 87.1397 36.2331 86.9612 36.1512C86.5509 35.9715 86.1986 35.7054 85.9043 35.3528C85.6196 35.0054 85.4175 34.6122 85.2981 34.1734C85.0326 33.1831 85.1294 32.3348 85.5885 31.6286C86.0347 30.9587 86.6833 30.5003 87.5343 30.2536C88.4391 29.9983 89.2332 30.0111 89.9166 30.2918C90.7399 30.6342 91.2982 31.2801 91.5915 32.2297C91.8847 33.1792 91.7868 34.0238 91.2977 34.7634C90.869 35.4118 90.2204 35.8702 89.3519 36.1384C89.2709 36.1634 89.1545 36.1913 89.0028 36.2221L87.6047 31.6953ZM90.4211 32.5911C90.2699 32.0493 89.9501 31.6925 89.4617 31.5208C89.2225 31.4254 88.9393 31.3959 88.612 31.4325L89.577 34.5571C89.868 34.4027 90.0853 34.2187 90.2289 34.005C90.5355 33.5878 90.5995 33.1165 90.4211 32.5911Z" fill="#1B2661"/>
<path d="M93.4717 44.2361L92.3218 44.3502L92.1131 42.2458L87.0535 42.7476L86.9258 41.4597L91.9854 40.9579L91.7767 38.8536L92.9267 38.7395L93.4717 44.2361Z" fill="#1B2661"/>
<path d="M93.3675 47.9574L93.2423 49.2687L91.1257 49.0666L90.9719 50.6771C90.9148 51.2753 90.6804 51.7443 90.2688 52.0842C89.8472 52.4464 89.3336 52.5985 88.7277 52.5407C88.1219 52.4828 87.6463 52.2362 87.3009 51.8008C86.9618 51.3815 86.8204 50.8766 86.8767 50.2861L87.1557 47.3643L93.3675 47.9574ZM89.8948 48.9491L88.2498 48.7921L88.1016 50.345C88.0942 50.5842 88.1645 50.7805 88.3123 50.9339C88.4511 51.102 88.6316 51.1966 88.854 51.2178C89.0611 51.2376 89.2521 51.1823 89.4271 51.052C89.6188 50.9078 89.7253 50.7245 89.7465 50.5021L89.8948 48.9491Z" fill="#1B2661"/>
<path d="M90.2448 62.4737L89.0077 65.3001C88.7709 65.8356 88.445 66.2011 88.03 66.3966C87.5244 66.6448 87.018 66.6567 86.5107 66.4324C86.2007 66.2953 85.9586 66.0998 85.7845 65.8459C85.7766 65.8256 85.7613 65.7935 85.7385 65.7498C85.7197 65.7162 85.7009 65.6826 85.682 65.649C85.6702 65.6185 85.6584 65.588 85.6467 65.5575C85.4013 65.6933 85.1738 65.7696 84.9642 65.7864C84.6327 65.8504 84.3119 65.8139 84.0019 65.6768C83.4806 65.4463 83.1446 65.0534 82.9942 64.4984C82.8776 64.0762 82.9066 63.6678 83.0811 63.2733L84.5485 59.9548L90.2448 62.4737ZM88.7715 63.2626L87.3342 62.627L86.6192 64.244C86.5164 64.4765 86.525 64.6951 86.6451 64.8998C86.7424 65.0607 86.8751 65.17 87.0434 65.2276C87.2125 65.3023 87.3827 65.327 87.5539 65.3017C87.7862 65.2528 87.9537 65.112 88.0565 64.8795L88.7715 63.2626ZM86.3936 62.2111L84.9563 61.5755L84.1198 63.4673C84.0201 63.6927 84.0217 63.9082 84.1245 64.1137C84.2218 64.2747 84.3585 64.3941 84.5347 64.472C84.7108 64.5499 84.8912 64.5707 85.0757 64.5343C85.2969 64.4721 85.4636 64.3142 85.5758 64.0606L86.3936 62.2111Z" fill="#1B2661"/>
<path d="M82.8237 75.2393L77.7587 71.5947L78.5281 70.5254L81.9048 72.9552L80.283 68.0867L80.9579 67.1487L86.0229 70.7934L85.2535 71.8627L81.9519 69.4869L83.4919 74.3108L82.8237 75.2393Z" fill="#1B2661"/>
<path d="M75.7962 82.1001L72.4485 78.3814L72.0534 78.737L70.7004 77.2341L71.6108 76.4146L72.1365 76.9986L75.1166 74.3158L74.5909 73.7318L75.5098 72.9045L76.8628 74.4075C76.3647 74.8559 76.5246 75.6552 77.3424 76.8055L79.0339 79.1853L75.7962 82.1001ZM73.3674 77.5541L75.942 80.414L77.4621 79.0455L76.3573 77.4902C75.8092 76.7086 75.5254 76.0882 75.5059 75.629L73.3674 77.5541Z" fill="#1B2661"/>
<path d="M69.4037 82.2306C69.12 81.8425 68.8263 81.5845 68.5225 81.4563C68.0562 81.2613 67.5789 81.3032 67.0906 81.582C66.6089 81.8571 66.3336 82.2449 66.2646 82.7456C66.2589 82.7666 66.2574 82.865 66.2602 83.0409L64.8613 83.201C64.8556 82.9735 64.8734 82.7638 64.9145 82.5718C65.0007 82.1322 65.1838 81.7305 65.4638 81.3665C65.7411 81.0131 66.0808 80.7303 66.4832 80.5183C67.392 80.0437 68.241 79.9537 69.0302 80.2482C69.7812 80.538 70.3696 81.0713 70.7955 81.8483C71.2415 82.6759 71.4018 83.4538 71.2764 84.1819C71.1213 85.0599 70.6123 85.7454 69.7493 86.2382C68.8863 86.731 68.0407 86.8191 67.2123 86.5025C66.4862 86.2252 65.8978 85.6919 65.447 84.9025C65.405 84.8289 65.3525 84.7214 65.2894 84.5799L69.4037 82.2306ZM69.1419 85.1745C69.6379 84.909 69.9166 84.5192 69.9779 84.0052C70.0191 83.751 69.9862 83.4682 69.8793 83.1566L67.0394 84.7782C67.2534 85.0287 67.4803 85.2007 67.7201 85.2944C68.1939 85.5029 68.6679 85.4629 69.1419 85.1745Z" fill="#1B2661"/>
<path d="M56.7032 85.5453C57.0339 84.7226 57.6733 84.1621 58.6213 83.8639C59.5693 83.5657 60.418 83.6581 61.1675 84.1411C61.8205 84.5738 62.2822 85.22 62.5526 86.0798C62.823 86.9396 62.8144 87.7337 62.5267 88.4622C62.1886 89.2873 61.5456 89.8489 60.5976 90.1471C59.6349 90.4499 58.7898 90.3563 58.0623 89.8664C57.402 89.4361 56.9367 88.791 56.6662 87.9312C56.4027 87.0935 56.415 86.2982 56.7032 85.5453ZM57.9235 85.9974C57.7726 86.4163 57.7908 86.9234 57.978 87.5186C58.1675 88.1212 58.4441 88.5511 58.8076 88.8083C59.2121 89.0929 59.6862 89.1497 60.23 88.9787C60.7812 88.8053 61.1375 88.4873 61.2988 88.0247C61.4497 87.6057 61.4304 87.095 61.2408 86.4924C61.0536 85.8971 60.7782 85.4709 60.4147 85.2138C60.0153 84.9195 59.5399 84.859 58.9888 85.0324C58.4523 85.2011 58.0972 85.5228 57.9235 85.9974Z" fill="#1B2661"/>
</svg>
