<svg width="182" height="100" viewBox="0 0 182 100" fill="none" xmlns="http://www.w3.org/2000/svg">
<g clip-path="url(#clip0)">
<path d="M127.543 66.3409C106.328 61.704 87.2273 54.3193 68.7568 47.1322C60.8508 44.0667 52.6685 40.8981 44.4517 37.9872C40.23 36.4515 35.7756 35.6441 31.2807 35.6001C27.1383 35.5473 23.0308 36.3608 19.2245 37.9879C15.4182 39.6151 11.9979 42.0195 9.1852 45.0456C4.86525 49.7036 1.98579 55.5013 0.89136 61.7449C-0.203076 67.9886 0.533862 74.4137 3.01399 80.2515C8.4343 92.5479 20.863 99.5977 37.2189 99.5977H90.0928V83.858H37.2189C27.3104 83.858 20.3279 80.3546 17.5487 73.9832C16.3251 70.9521 15.9781 67.641 16.5471 64.424C17.116 61.2071 18.5781 58.2126 20.7681 55.7791C25.144 51.0993 31.5051 50.086 39.1695 52.8167C47.1619 55.6417 55.2319 58.7759 63.0258 61.7985C82.0659 69.1316 101.745 76.7911 124.16 81.6855C142.393 85.8217 161.372 85.3939 179.398 80.4405V63.9194C162.657 69.4071 144.727 70.2443 127.543 66.3409Z" fill="#1B2661"/>
<path d="M51.3205 25.2261C61.6095 28.9679 70.2267 32.5114 78.5509 35.9342C94.76 42.5902 108.711 48.3494 128.824 53.1172C149.635 58.0574 166.654 54.945 179.398 49.6686V32.1407C168.834 37.8396 152.935 42.5988 132.478 37.7362C113.614 33.2615 100.146 27.7264 84.5572 21.355C76.0778 17.9063 67.3227 14.268 56.7235 10.4055C46.3871 6.67984 35.4984 4.71841 24.5123 4.60311C18.7344 4.52645 12.9741 5.25774 7.39844 6.77578V23.6311C19.0489 17.9839 38.2654 20.467 51.3205 25.2261Z" fill="#1B2661"/>
<path d="M48.3166 -6.77191C58.6056 -3.03011 67.2228 0.513396 75.547 3.9362C91.7561 10.5921 105.707 16.3514 125.82 21.1192C146.631 26.0594 163.65 22.947 176.395 17.6705V0.142666C165.83 5.84159 149.931 10.6007 129.474 5.73813C110.611 1.26348 97.1418 -4.27163 81.5533 -10.643C73.0739 -14.0917 64.3188 -17.73 53.7196 -21.5926C43.3831 -25.3182 32.4945 -27.2796 21.5084 -27.3949C15.7305 -27.4716 9.97018 -26.7403 4.39453 -25.2223V-8.36692C16.045 -14.0141 35.2615 -11.5311 48.3166 -6.77191Z" fill="#1B2661"/>
</g>
<defs>
<clipPath id="clip0">
<rect width="182" height="100" fill="white"/>
</clipPath>
</defs>
</svg>
