<svg width="238" height="147" viewBox="0 0 238 147" fill="none" xmlns="http://www.w3.org/2000/svg">
<g opacity="0.1">
<path d="M134.55 13.9949C125.622 15.9461 117.584 19.0537 109.812 22.0781C106.485 23.3681 103.042 24.7015 99.5838 25.9265C97.8072 26.5727 95.9328 26.9125 94.0413 26.931C92.298 26.9532 90.5696 26.6109 88.9678 25.9262C87.3661 25.2414 85.9268 24.2296 84.7432 22.9562C82.9253 20.9961 81.7136 18.5563 81.253 15.9289C80.7925 13.3015 81.1026 10.5977 82.1463 8.14109C84.4272 2.96664 89.6574 0 96.5401 0H118.79V6.62344H96.5401C92.3705 6.62344 89.4322 8.09773 88.2626 10.7789C87.7477 12.0544 87.6017 13.4478 87.8411 14.8015C88.0806 16.1552 88.6958 17.4154 89.6174 18.4394C91.4589 20.4087 94.1357 20.8351 97.361 19.686C100.724 18.4972 104.12 17.1783 107.4 15.9064C115.412 12.8205 123.693 9.59731 133.126 7.53765C140.799 5.7971 148.785 5.97713 156.371 8.0616V15.0139C149.326 12.7046 141.781 12.3523 134.55 13.9949Z" fill="#00AECD"/>
<path d="M102.474 31.2964C106.804 29.7218 110.43 28.2306 113.933 26.7902C120.754 23.9893 126.625 21.5658 135.089 19.5594C143.846 17.4805 151.008 18.7903 156.371 21.0107V28.3866C151.925 25.9884 145.235 23.9857 136.626 26.032C128.688 27.915 123.021 30.2442 116.461 32.9254C112.892 34.3766 109.208 35.9077 104.748 37.5331C100.398 39.1009 95.8161 39.9263 91.193 39.9748C88.7616 40.007 86.3376 39.6993 83.9913 39.0605V31.9675C88.894 34.344 96.9805 33.2991 102.474 31.2964Z" fill="#00AECD"/>
<path d="M101.209 44.7651C105.538 43.1905 109.165 41.6994 112.668 40.259C119.489 37.4581 125.359 35.0345 133.823 33.0282C142.58 30.9493 149.742 32.259 155.105 34.4794V41.8554C150.66 39.4572 143.969 37.4545 135.361 39.5007C127.423 41.3837 121.755 43.7129 115.195 46.3941C111.627 47.8454 107.943 49.3764 103.482 51.0018C99.1326 52.5696 94.5505 53.395 89.9274 53.4435C87.496 53.4758 85.072 53.1681 82.7257 52.5292V45.4363C87.6283 47.8127 95.7149 46.7678 101.209 44.7651Z" fill="#00AECD"/>
<path d="M101.634 57.8042C105.964 56.2296 109.59 54.7384 113.093 53.2981C119.914 50.4972 125.785 48.0736 134.249 46.0672C143.006 43.9883 150.168 45.2981 155.531 47.5185V54.8944C151.085 52.4962 144.395 50.4935 135.786 52.5398C127.849 54.4228 122.181 56.752 115.621 59.4332C112.053 60.8844 108.368 62.4155 103.908 64.0409C99.5583 65.6087 94.9763 66.4341 90.3532 66.4826C87.9217 66.5149 85.4977 66.2071 83.1514 65.5683V58.4754C88.0541 60.8518 96.1406 59.8069 101.634 57.8042Z" fill="#00AECD"/>
<path d="M101.634 71.2729C105.964 69.6983 109.59 68.2072 113.093 66.7668C119.914 63.9659 125.785 61.5423 134.249 59.536C143.006 57.4571 150.168 58.7668 155.531 60.9872V68.3632C151.085 65.965 144.395 63.9623 135.786 66.0085C127.849 67.8915 122.181 70.2208 115.621 72.9019C112.053 74.3532 108.368 75.8842 103.908 77.5096C99.5583 79.0774 94.9763 79.9028 90.3532 79.9513C87.9217 79.9836 85.4977 79.6759 83.1514 79.0371V71.9441C88.0541 74.3205 96.1406 73.2756 101.634 71.2729Z" fill="#00AECD"/>
<path d="M101.634 84.7417C105.964 83.1671 109.59 81.6759 113.093 80.2356C119.914 77.4347 125.785 75.0111 134.249 73.0047C143.006 70.9258 150.168 72.2356 155.531 74.456V81.8319C151.085 79.4337 144.395 77.431 135.786 79.4773C127.849 81.3603 122.181 83.6895 115.621 86.3707C112.053 87.8219 108.368 89.353 103.908 90.9784C99.5583 92.5462 94.9763 93.3716 90.3532 93.4201C87.9217 93.4524 85.4977 93.1446 83.1514 92.5058V85.4129C88.0541 87.7893 96.1406 86.7444 101.634 84.7417Z" fill="#00AECD"/>
<path d="M101.634 98.2065C105.964 96.6319 109.59 95.1408 113.093 93.7004C119.914 90.8995 125.785 88.4759 134.249 86.4696C143.006 84.3907 150.168 85.7004 155.531 87.9208V95.2968C151.085 92.8986 144.395 90.8959 135.786 92.9421C127.849 94.8251 122.181 97.1544 115.621 99.8355C112.053 101.287 108.368 102.818 103.908 104.443C99.5583 106.011 94.9763 106.836 90.3532 106.885C87.9217 106.917 85.4977 106.609 83.1514 105.971V98.8777C88.0541 101.254 96.1406 100.209 101.634 98.2065Z" fill="#00AECD"/>
<path d="M86.5719 113.111C90.084 113.563 95.8371 113.559 103.279 110.979C107.612 109.475 111.269 108.082 114.796 106.735C121.428 104.205 127.69 101.816 136.951 99.3036C146.983 96.5847 152.293 101.166 154.109 103.259C155.707 105.089 156.738 107.327 157.083 109.71C157.428 112.093 157.072 114.523 156.056 116.715C154.941 119.071 151.28 124.555 141.408 124.555H121.069V118.041H141.408C145.719 118.041 148.774 116.598 150.016 113.978C150.5 112.915 150.665 111.739 150.491 110.587C150.317 109.435 149.812 108.356 149.035 107.474C146.943 105.065 143.187 104.372 138.731 105.58C129.782 108.008 123.673 110.335 117.204 112.805C113.623 114.17 109.94 115.581 105.491 117.117C96.1494 120.358 88.8237 120.177 83.9895 119.295V112.642C84.8408 112.845 85.7029 113.001 86.5719 113.111Z" fill="#00AECD"/>
<path d="M216.179 53.9753C207.251 55.9266 199.213 59.0342 191.441 62.0586C188.114 63.3486 184.67 64.682 181.213 65.9069C179.436 66.5532 177.562 66.8929 175.67 66.9115C173.927 66.9337 172.199 66.5914 170.597 65.9066C168.995 65.2219 167.556 64.2101 166.372 62.9367C164.554 60.9765 163.342 58.5368 162.882 55.9094C162.421 53.282 162.731 50.5782 163.775 48.1216C166.056 42.9471 171.286 39.9805 178.169 39.9805H200.419V46.6039H178.169C173.999 46.6039 171.061 48.0782 169.892 50.7594C169.377 52.0349 169.231 53.4282 169.47 54.782C169.709 56.1357 170.325 57.3958 171.246 58.4199C173.088 60.3892 175.765 60.8156 178.99 59.6665C182.353 58.4777 185.749 57.1588 189.029 55.8869C197.041 52.801 205.322 49.5778 214.755 47.5181C222.428 45.7776 230.414 45.9576 238 48.0421V54.9943C230.955 52.6851 223.41 52.3327 216.179 53.9753Z" fill="#00AECD"/>
<path d="M184.103 71.2807C188.433 69.7061 192.059 68.215 195.562 66.7746C202.383 63.9737 208.254 61.5501 216.718 59.5438C225.475 57.4649 232.637 58.7746 238 60.995V68.371C233.554 65.9728 226.864 63.9701 218.255 66.0163C210.317 67.8993 204.649 70.2286 198.09 72.9097C194.521 74.361 190.837 75.8921 186.377 77.5174C182.027 79.0852 177.445 79.9106 172.822 79.9592C170.39 79.9914 167.966 79.6837 165.62 79.0449V71.9519C170.523 74.3283 178.609 73.2834 184.103 71.2807Z" fill="#00AECD"/>
<path d="M182.838 84.7456C187.167 83.171 190.794 81.6798 194.296 80.2395C201.117 77.4386 206.988 75.015 215.452 73.0086C224.209 70.9297 231.371 72.2395 236.734 74.4599V81.8358C232.289 79.4376 225.598 77.4349 216.989 79.4812C209.052 81.3642 203.384 83.6934 196.824 86.3746C193.256 87.8258 189.571 89.3569 185.111 90.9823C180.761 92.5501 176.179 93.3755 171.556 93.424C169.125 93.4563 166.701 93.1485 164.355 92.5097V85.4168C169.257 87.7932 177.344 86.7483 182.838 84.7456Z" fill="#00AECD"/>
<path d="M183.259 97.7885C187.589 96.2139 191.215 94.7228 194.718 93.2824C201.539 90.4815 207.41 88.058 215.874 86.0516C224.631 83.9727 231.793 85.2825 237.156 87.5029V94.8788C232.71 92.4806 226.02 90.4779 217.411 92.5242C209.474 94.4071 203.806 96.7364 197.246 99.4176C193.678 100.869 189.993 102.4 185.533 104.025C181.183 105.593 176.601 106.418 171.978 106.467C169.547 106.499 167.123 106.191 164.776 105.553V98.4597C169.679 100.836 177.766 99.7913 183.259 97.7885Z" fill="#00AECD"/>
<path d="M183.259 111.253C187.589 109.679 191.215 108.188 194.718 106.747C201.539 103.946 207.41 101.523 215.874 99.5165C224.631 97.4375 231.793 98.7473 237.156 100.968V108.344C232.71 105.945 226.02 103.943 217.411 105.989C209.474 107.872 203.806 110.201 197.246 112.882C193.678 114.334 189.993 115.865 185.533 117.49C181.183 119.058 176.601 119.883 171.978 119.932C169.547 119.964 167.123 119.656 164.776 119.018V111.925C169.679 114.301 177.766 113.256 183.259 111.253Z" fill="#00AECD"/>
<path d="M183.259 124.722C187.589 123.148 191.215 121.656 194.718 120.216C201.539 117.415 207.41 114.992 215.874 112.985C224.631 110.906 231.793 112.216 237.156 114.436V121.812C232.71 119.414 226.02 117.411 217.411 119.458C209.474 121.341 203.806 123.67 197.246 126.351C193.678 127.802 189.993 129.333 185.533 130.959C181.183 132.527 176.601 133.352 171.978 133.401C169.547 133.433 167.123 133.125 164.776 132.486V125.393C169.679 127.77 177.766 126.725 183.259 124.722Z" fill="#00AECD"/>
<path d="M183.259 138.187C187.589 136.612 191.215 135.121 194.718 133.681C201.539 130.88 207.41 128.456 215.874 126.45C224.631 124.371 231.793 125.681 237.156 127.901V135.277C232.71 132.879 226.02 130.876 217.411 132.923C209.474 134.806 203.806 137.135 197.246 139.816C193.678 141.267 189.993 142.798 185.533 144.424C181.183 145.991 176.601 146.817 171.978 146.865C169.547 146.898 167.123 146.59 164.776 145.951V138.858C169.679 141.235 177.766 140.19 183.259 138.187Z" fill="#00AECD"/>
<path d="M22.9074 53.5535C31.835 55.5047 39.8727 58.6123 47.6454 61.6367C50.9723 62.9267 54.4155 64.2601 57.8732 65.4851C59.6498 66.1313 61.5243 66.4711 63.4158 66.4896C65.159 66.5118 66.8874 66.1695 68.4892 65.4848C70.0909 64.8 71.5302 63.7882 72.7139 62.5148C74.5317 60.5546 75.7435 58.1149 76.204 55.4875C76.6646 52.8601 76.3545 50.1563 75.3108 47.6997C73.0298 42.5252 67.7997 39.5586 60.9169 39.5586H38.6669V46.182H60.9169C65.0865 46.182 68.0249 47.6563 69.1944 50.3375C69.7093 51.613 69.8553 53.0064 69.6159 54.3601C69.3765 55.7138 68.7612 56.9739 67.8396 57.998C65.9982 59.9673 63.3213 60.3937 60.0961 59.2446C56.7328 58.0558 53.3368 56.7369 50.057 55.465C42.0447 52.3791 33.7636 49.1559 24.3311 47.0962C16.6584 45.3557 8.67155 45.5357 1.08594 47.6202V54.5725C8.13095 52.2632 15.6759 51.9109 22.9074 53.5535Z" fill="#00AECD"/>
<path d="M54.9828 70.8549C50.6531 69.2803 47.0268 67.7892 43.5239 66.3488C36.7029 63.5479 30.832 61.1244 22.3684 59.118C13.611 57.0391 6.44915 58.3489 1.08594 60.5693V67.9452C5.53171 65.547 12.2221 63.5443 20.8308 65.5906C28.7687 67.4735 34.4365 69.8028 40.9964 72.484C44.5646 73.9352 48.2489 75.4663 52.7091 77.0917C57.0588 78.6595 61.6409 79.4849 66.264 79.5334C68.6954 79.5656 71.1194 79.2579 73.4658 78.6191V71.5261C68.5631 73.9026 60.4766 72.8577 54.9828 70.8549Z" fill="#00AECD"/>
<path d="M70.8852 85.3455C67.373 85.7969 61.6199 85.7933 54.178 83.2131C49.845 81.7097 46.1876 80.3165 42.6609 78.9695C36.0289 76.439 29.7673 74.0507 20.5057 71.538C10.4741 68.8191 5.16411 73.4003 3.34811 75.4937C1.75036 77.3236 0.718658 79.5612 0.373872 81.9443C0.0290858 84.3274 0.385501 86.7573 1.40136 88.9493C2.51638 91.3057 6.17744 96.7896 16.0492 96.7896H36.3884V90.275H16.0492C11.738 90.275 8.68352 88.8321 7.44137 86.2127C6.9573 85.1493 6.79246 83.973 6.96611 82.8213C7.13976 81.6697 7.64472 80.5901 8.42202 79.7088C10.514 77.2991 14.2695 76.6061 18.726 77.8145C27.6753 80.2419 33.7843 82.5698 40.2529 85.0399C43.834 86.4046 47.5169 87.8156 51.9661 89.351C61.3076 92.5923 68.6333 92.411 73.4675 91.5296V84.8764C72.6162 85.0792 71.7541 85.2358 70.8852 85.3455Z" fill="#00AECD"/>
</g>
</svg>
