<svg width="320" height="116" viewBox="0 0 320 116" fill="none" xmlns="http://www.w3.org/2000/svg">
<path d="M238.695 11.0538C231.644 12.595 225.295 15.0495 219.156 17.4384C216.528 18.4573 213.809 19.5104 211.078 20.4779C209.675 20.9884 208.194 21.2567 206.7 21.2714C205.323 21.2889 203.958 21.0185 202.693 20.4777C201.428 19.9369 200.291 19.1377 199.356 18.1319C197.92 16.5837 196.963 14.6566 196.599 12.5814C196.235 10.5062 196.48 8.37058 197.305 6.43022C199.106 2.34319 203.237 0 208.674 0H226.248V5.23151H208.674C205.38 5.23151 203.06 6.39597 202.136 8.51369C201.729 9.52114 201.614 10.6217 201.803 11.6909C201.992 12.7602 202.478 13.7555 203.206 14.5643C204.66 16.1198 206.775 16.4566 209.322 15.549C211.979 14.61 214.661 13.5682 217.251 12.5636C223.58 10.1262 230.121 7.58041 237.571 5.95359C243.631 4.57883 249.94 4.72102 255.931 6.36743V11.8587C250.367 10.0347 244.407 9.7564 238.695 11.0538Z" fill="#E5F6F9"/>
<path d="M213.361 24.7198C216.781 23.4761 219.645 22.2983 222.412 21.1607C227.799 18.9484 232.436 17.0341 239.121 15.4494C246.038 13.8074 251.695 14.8419 255.931 16.5957V22.4216C252.42 20.5274 247.135 18.9455 240.336 20.5618C234.066 22.049 229.589 23.8888 224.408 26.0065C221.59 27.1528 218.68 28.3621 215.157 29.6459C211.721 30.8842 208.102 31.5361 204.45 31.5745C202.53 31.5999 200.615 31.3569 198.762 30.8523V25.25C202.634 27.127 209.022 26.3017 213.361 24.7198Z" fill="#E5F6F9"/>
<path d="M212.364 35.3546C215.783 34.1109 218.648 32.9331 221.414 31.7954C226.802 29.5832 231.439 27.6689 238.124 26.0842C245.041 24.4422 250.698 25.4767 254.934 27.2305V33.0563C251.422 31.1621 246.138 29.5803 239.338 31.1965C233.069 32.6838 228.592 34.5235 223.411 36.6413C220.592 37.7875 217.682 38.9968 214.159 40.2806C210.724 41.519 207.105 42.1709 203.453 42.2092C201.533 42.2347 199.618 41.9916 197.765 41.4871V35.8847C201.637 37.7617 208.024 36.9364 212.364 35.3546Z" fill="#E5F6F9"/>
<path d="M212.696 45.6593C216.116 44.4156 218.98 43.2378 221.747 42.1001C227.134 39.8879 231.771 37.9736 238.456 36.3889C245.373 34.7469 251.03 35.7814 255.266 37.5352V43.361C251.755 41.4668 246.47 39.885 239.671 41.5012C233.401 42.9885 228.924 44.8282 223.743 46.9459C220.925 48.0922 218.015 49.3015 214.492 50.5853C211.056 51.8237 207.437 52.4756 203.786 52.5139C201.865 52.5394 199.95 52.2963 198.097 51.7918V46.1894C201.97 48.0664 208.357 47.2411 212.696 45.6593Z" fill="#E5F6F9"/>
<path d="M212.696 56.296C216.116 55.0523 218.98 53.8745 221.747 52.7369C227.134 50.5246 231.771 48.6103 238.456 47.0256C245.373 45.3836 251.03 46.4181 255.266 48.1719V53.9977C251.755 52.1035 246.47 50.5217 239.671 52.1379C233.401 53.6252 228.924 55.465 223.743 57.5827C220.925 58.7289 218.015 59.9382 214.492 61.222C211.056 62.4604 207.437 63.1123 203.786 63.1506C201.865 63.1761 199.95 62.933 198.097 62.4285V56.8261C201.97 58.7031 208.357 57.8778 212.696 56.296Z" fill="#E5F6F9"/>
<path d="M212.696 66.9308C216.116 65.6871 218.98 64.5093 221.747 63.3716C227.134 61.1593 231.771 59.2451 238.456 57.6604C245.373 56.0184 251.03 57.0529 255.266 58.8066V64.6325C251.755 62.7383 246.47 61.1565 239.671 62.7727C233.401 64.26 228.924 66.0997 223.743 68.2174C220.925 69.3637 218.015 70.573 214.492 71.8568C211.056 73.0951 207.437 73.7471 203.786 73.7854C201.865 73.8109 199.95 73.5678 198.097 73.0632V67.4609C201.97 69.3379 208.357 68.5126 212.696 66.9308Z" fill="#E5F6F9"/>
<path d="M212.696 77.5675C216.116 76.3238 218.98 75.146 221.747 74.0083C227.134 71.7961 231.771 69.8818 238.456 68.2971C245.373 66.6551 251.03 67.6896 255.266 69.4434V75.2692C251.755 73.375 246.47 71.7932 239.671 73.4094C233.401 74.8967 228.924 76.7364 223.743 78.8542C220.925 80.0004 218.015 81.2097 214.492 82.4935C211.056 83.7319 207.437 84.3838 203.786 84.4221C201.865 84.4476 199.95 84.2045 198.097 83.7V78.0976C201.97 79.9746 208.357 79.1493 212.696 77.5675Z" fill="#E5F6F9"/>
<path d="M200.802 89.3457C203.576 89.7022 208.12 89.6994 213.998 87.6614C217.42 86.474 220.309 85.3735 223.094 84.3096C228.333 82.3109 233.278 80.4245 240.594 78.4398C248.517 76.2923 252.711 79.9108 254.146 81.5642C255.408 83.0096 256.222 84.7769 256.495 86.6592C256.767 88.5415 256.486 90.4608 255.683 92.1922C254.803 94.0533 251.911 98.3848 244.114 98.3848H228.049V93.2392H244.114C247.519 93.2392 249.931 92.0995 250.913 90.0306C251.295 89.1907 251.425 88.2616 251.288 87.352C251.151 86.4423 250.752 85.5896 250.138 84.8935C248.486 82.9903 245.519 82.4429 241.999 83.3973C234.931 85.3146 230.106 87.1533 224.996 89.1043C222.168 90.1822 219.259 91.2967 215.745 92.5094C208.366 95.0695 202.58 94.9263 198.762 94.2302V88.9751C199.434 89.1353 200.115 89.2591 200.802 89.3457Z" fill="#E5F6F9"/>
<path d="M303.176 42.63C296.125 44.1712 289.776 46.6257 283.637 49.0145C281.009 50.0334 278.289 51.0866 275.558 52.0541C274.155 52.5646 272.675 52.8329 271.181 52.8475C269.804 52.8651 268.439 52.5947 267.173 52.0539C265.908 51.5131 264.771 50.7139 263.837 49.7081C262.401 48.1598 261.444 46.2328 261.08 44.1576C260.716 42.0823 260.961 39.9468 261.785 38.0064C263.587 33.9194 267.718 31.5762 273.154 31.5762H290.728V36.8077H273.154C269.861 36.8077 267.54 37.9721 266.616 40.0899C266.21 41.0973 266.094 42.1979 266.283 43.2671C266.473 44.3363 266.959 45.3316 267.686 46.1405C269.141 47.696 271.255 48.0327 273.803 47.1251C276.459 46.1861 279.141 45.1444 281.732 44.1398C288.06 41.7024 294.601 39.1566 302.051 37.5298C308.112 36.155 314.42 36.2972 320.412 37.9436V43.4348C314.847 41.6109 308.888 41.3326 303.176 42.63Z" fill="#E5F6F9"/>
<path d="M277.842 56.296C281.262 55.0523 284.126 53.8745 286.893 52.7369C292.28 50.5246 296.917 48.6103 303.602 47.0256C310.519 45.3836 316.176 46.4181 320.412 48.1719V53.9977C316.901 52.1035 311.616 50.5217 304.817 52.1379C298.547 53.6252 294.07 55.465 288.889 57.5827C286.071 58.7289 283.161 59.9382 279.638 61.222C276.202 62.4604 272.583 63.1123 268.932 63.1506C267.011 63.1761 265.096 62.933 263.243 62.4285V56.8261C267.116 58.7031 273.503 57.8778 277.842 56.296Z" fill="#E5F6F9"/>
<path d="M276.845 66.9327C280.265 65.689 283.129 64.5112 285.896 63.3736C291.283 61.1613 295.92 59.247 302.605 57.6623C309.522 56.0203 315.179 57.0548 319.415 58.8086V64.6345C315.904 62.7403 310.619 61.1584 303.82 62.7747C297.55 64.2619 293.073 66.1017 287.892 68.2194C285.074 69.3656 282.164 70.575 278.641 71.8588C275.205 73.0971 271.586 73.749 267.934 73.7873C266.014 73.8128 264.099 73.5698 262.246 73.0652V67.4629C266.118 69.3399 272.506 68.5145 276.845 66.9327Z" fill="#E5F6F9"/>
<path d="M277.177 77.2354C280.597 75.9918 283.461 74.814 286.228 73.6763C291.616 71.464 296.253 69.5498 302.938 67.9651C309.855 66.323 315.511 67.3575 319.748 69.1113V74.9372C316.236 73.043 310.952 71.4612 304.152 73.0774C297.882 74.5647 293.406 76.4044 288.224 78.5221C285.406 79.6684 282.496 80.8777 278.973 82.1615C275.538 83.3998 271.918 84.0518 268.267 84.0901C266.346 84.1156 264.432 83.8725 262.579 83.3679V77.7656C266.451 79.6426 272.838 78.8173 277.177 77.2354Z" fill="#E5F6F9"/>
<path d="M277.177 87.8722C280.597 86.6285 283.461 85.4507 286.228 84.313C291.616 82.1007 296.253 80.1865 302.938 78.6018C309.855 76.9598 315.511 77.9943 319.748 79.748V85.5739C316.236 83.6797 310.952 82.0979 304.152 83.7141C297.882 85.2014 293.406 87.0411 288.224 89.1588C285.406 90.3051 282.496 91.5144 278.973 92.7982C275.538 94.0365 271.918 94.6885 268.267 94.7268C266.346 94.7523 264.432 94.5092 262.579 94.0047V88.4023C266.451 90.2793 272.838 89.454 277.177 87.8722Z" fill="#E5F6F9"/>
<path d="M277.177 98.5069C280.597 97.2632 283.461 96.0855 286.228 94.9478C291.616 92.7355 296.253 90.8213 302.938 89.2365C309.855 87.5945 315.511 88.629 319.748 90.3828V96.2087C316.236 94.3145 310.952 92.7326 304.152 94.3489C297.882 95.8361 293.406 97.6759 288.224 99.7936C285.406 100.94 282.496 102.149 278.973 103.433C275.538 104.671 271.918 105.323 268.267 105.362C266.346 105.387 264.432 105.144 262.579 104.639V99.0371C266.451 100.914 272.838 100.089 277.177 98.5069Z" fill="#E5F6F9"/>
<path d="M277.177 109.144C280.597 107.9 283.461 106.722 286.228 105.585C291.616 103.372 296.253 101.458 302.938 99.8733C309.855 98.2313 315.511 99.2658 319.748 101.02V106.845C316.236 104.951 310.952 103.369 304.152 104.986C297.882 106.473 293.406 108.313 288.224 110.43C285.406 111.577 282.496 112.786 278.973 114.07C275.538 115.308 271.918 115.96 268.267 115.998C266.346 116.024 264.432 115.781 262.579 115.276V109.674C266.451 111.551 272.838 110.725 277.177 109.144Z" fill="#E5F6F9"/>
<path d="M150.519 42.2979C157.571 43.8391 163.919 46.2936 170.058 48.6825C172.686 49.7014 175.406 50.7546 178.137 51.7221C179.54 52.2325 181.021 52.5009 182.515 52.5155C183.891 52.5331 185.257 52.2627 186.522 51.7218C187.787 51.181 188.924 50.3818 189.859 49.376C191.295 47.8278 192.252 45.9008 192.615 43.8255C192.979 41.7503 192.734 39.6147 191.91 37.6744C190.108 33.5873 185.977 31.2441 180.541 31.2441H162.967V36.4756H180.541C183.834 36.4756 186.155 37.6401 187.079 39.7578C187.486 40.7653 187.601 41.8658 187.412 42.9351C187.223 44.0043 186.737 44.9996 186.009 45.8085C184.554 47.3639 182.44 47.7007 179.893 46.7931C177.236 45.8541 174.554 44.8124 171.963 43.8078C165.635 41.3704 159.094 38.8245 151.644 37.1977C145.583 35.823 139.275 35.9652 133.284 37.6116V43.1028C138.848 41.2788 144.807 41.0005 150.519 42.2979Z" fill="#E5F6F9"/>
<path d="M175.854 55.964C172.434 54.7203 169.57 53.5425 166.803 52.4048C161.416 50.1925 156.778 48.2783 150.093 46.6936C143.176 45.0516 137.52 46.0861 133.284 47.8398V53.6657C136.795 51.7715 142.079 50.1897 148.879 51.8059C155.149 53.2932 159.625 55.1329 164.807 57.2506C167.625 58.3969 170.535 59.6062 174.058 60.89C177.494 62.1283 181.113 62.7803 184.764 62.8186C186.685 62.8441 188.599 62.601 190.453 62.0965V56.4941C186.58 58.3711 180.193 57.5458 175.854 55.964Z" fill="#E5F6F9"/>
<path d="M17.2356 42.63C24.287 44.1712 30.6356 46.6257 36.7748 49.0145C39.4026 50.0334 42.1222 51.0866 44.8533 52.0541C46.2565 52.5646 47.737 52.8329 49.231 52.8475C50.6079 52.8651 51.9731 52.5947 53.2383 52.0539C54.5034 51.5131 55.6402 50.7139 56.5751 49.7081C58.011 48.1598 58.968 46.2328 59.3318 44.1576C59.6956 42.0823 59.4506 39.9468 58.6263 38.0064C56.8247 33.9194 52.6936 31.5762 47.2573 31.5762H29.6832V36.8077H47.2573C50.5507 36.8077 52.8715 37.9721 53.7953 40.0899C54.202 41.0973 54.3173 42.1979 54.1282 43.2671C53.9391 44.3363 53.4531 45.3316 52.7252 46.1405C51.2707 47.696 49.1564 48.0327 46.609 47.1251C43.9525 46.1861 41.2702 45.1444 38.6797 44.1398C32.3512 41.7024 25.8104 39.1566 18.3602 37.5298C12.2999 36.155 5.99148 36.2972 0 37.9436V43.4348C5.56448 41.6109 11.5239 41.3326 17.2356 42.63Z" fill="#E5F6F9"/>
<path d="M42.5703 56.296C39.1504 55.0523 36.2863 53.8745 33.5195 52.7369C28.1319 50.5246 23.4948 48.6103 16.8099 47.0256C9.89287 45.3836 4.23612 46.4181 0 48.1719V53.9977C3.51148 52.1035 8.79589 50.5217 15.5954 52.1379C21.8651 53.6252 26.3418 55.465 31.5231 57.5827C34.3415 58.7289 37.2515 59.9382 40.7744 61.222C44.21 62.4604 47.8292 63.1123 51.4807 63.1506C53.4012 63.1761 55.3158 62.933 57.169 62.4285V56.8261C53.2966 58.7031 46.9095 57.8778 42.5703 56.296Z" fill="#E5F6F9"/>
<path d="M188.413 67.4082C185.639 67.7647 181.095 67.7619 175.217 65.7239C171.794 64.5365 168.905 63.436 166.12 62.3721C160.882 60.3734 155.936 58.487 148.621 56.5023C140.697 54.3548 136.503 57.9733 135.069 59.6267C133.807 61.0721 132.992 62.8394 132.72 64.7217C132.447 66.604 132.729 68.5233 133.531 70.2547C134.412 72.1158 137.304 76.4473 145.101 76.4473H161.166V71.3017H145.101C141.696 71.3017 139.283 70.162 138.302 68.0931C137.919 67.2532 137.789 66.3241 137.926 65.4145C138.064 64.5048 138.462 63.6521 139.076 62.956C140.729 61.0528 143.695 60.5054 147.215 61.4598C154.283 63.3771 159.109 65.2158 164.218 67.1668C167.046 68.2447 169.955 69.3592 173.47 70.5719C180.848 73.132 186.634 72.9888 190.452 72.2927V67.0376C189.78 67.1978 189.099 67.3216 188.413 67.4082Z" fill="#E5F6F9"/>
</svg>
