<?xml version="1.0" encoding="utf-8"?>
<!-- Generator: Adobe Illustrator 23.0.2, SVG Export Plug-In . SVG Version: 6.00 Build 0)  -->
<svg version="1.1" id="Слой_1" xmlns="http://www.w3.org/2000/svg" xmlns:xlink="http://www.w3.org/1999/xlink" x="0px" y="0px"
	 width="238px" height="147px" viewBox="0 0 238 147" style="enable-background:new 0 0 238 147;" xml:space="preserve">
<style type="text/css">
	.st0{opacity:0.1;}
	.st1{fill:#00AECD;}
</style>
<g class="st0">
	<path class="st1" d="M81.9,15v-7c7.6-2.1,15.6-2.3,23.2-0.5c9.4,2.1,17.7,5.3,25.7,8.4c3.3,1.3,6.7,2.6,10,3.8
		c3.2,1.1,5.9,0.7,7.7-1.2c0.9-1,1.5-2.3,1.8-3.6c0.2-1.4,0.1-2.7-0.4-4c-1.2-2.7-4.1-4.2-8.3-4.2h-22.2V0l22.2,0
		c6.9,0,12.1,3,14.4,8.1c1,2.5,1.4,5.2,0.9,7.8c-0.5,2.6-1.7,5.1-3.5,7c-1.2,1.3-2.6,2.3-4.2,3c-1.6,0.7-3.3,1-5.1,1
		c-1.9,0-3.8-0.4-5.5-1c-3.5-1.2-6.9-2.6-10.2-3.8c-7.8-3-15.8-6.1-24.7-8.1C96.5,12.4,88.9,12.7,81.9,15z"/>
	<path class="st1" d="M154.3,32v7.1c-2.3,0.6-4.8,0.9-7.2,0.9c-4.6,0-9.2-0.9-13.6-2.4c-4.5-1.6-8.1-3.2-11.7-4.6
		c-6.6-2.7-12.2-5-20.2-6.9c-8.6-2-15.3,0-19.7,2.4V21c5.4-2.2,12.5-3.5,21.3-1.5c8.5,2,14.3,4.4,21.2,7.2c3.5,1.4,7.1,2.9,11.5,4.5
		C141.3,33.3,149.4,34.3,154.3,32z"/>
	<path class="st1" d="M155.5,45.4v7.1c-2.3,0.6-4.8,0.9-7.2,0.9c-4.6,0-9.2-0.9-13.6-2.4c-4.5-1.6-8.1-3.2-11.7-4.6
		c-6.6-2.7-12.2-5-20.2-6.9c-8.6-2-15.3,0-19.7,2.4v-7.4c5.4-2.2,12.5-3.5,21.3-1.5c8.5,2,14.3,4.4,21.2,7.2
		c3.5,1.4,7.1,2.9,11.5,4.5C142.5,46.8,150.6,47.8,155.5,45.4z"/>
	<path class="st1" d="M155.1,58.5v7.1c-2.3,0.6-4.8,0.9-7.2,0.9c-4.6,0-9.2-0.9-13.6-2.4c-4.5-1.6-8.1-3.2-11.7-4.6
		c-6.6-2.7-12.2-5-20.2-6.9c-8.6-2-15.3,0-19.7,2.4v-7.4c5.4-2.2,12.5-3.5,21.3-1.5c8.5,2,14.3,4.4,21.2,7.2
		c3.5,1.4,7.1,2.9,11.5,4.5C142.1,59.8,150.2,60.9,155.1,58.5z"/>
	<path class="st1" d="M155.1,71.9V79c-2.3,0.6-4.8,0.9-7.2,0.9c-4.6,0-9.2-0.9-13.6-2.4c-4.5-1.6-8.1-3.2-11.7-4.6
		c-6.6-2.7-12.2-5-20.2-6.9c-8.6-2-15.3,0-19.7,2.4V61c5.4-2.2,12.5-3.5,21.3-1.5c8.5,2,14.3,4.4,21.2,7.2c3.5,1.4,7.1,2.9,11.5,4.5
		C142.1,73.3,150.2,74.3,155.1,71.9z"/>
	<path class="st1" d="M155.1,85.4v7.1c-2.3,0.6-4.8,0.9-7.2,0.9c-4.6,0-9.2-0.9-13.6-2.4c-4.5-1.6-8.1-3.2-11.7-4.6
		c-6.6-2.7-12.2-5-20.2-6.9c-8.6-2-15.3,0-19.7,2.4v-7.4c5.4-2.2,12.5-3.5,21.3-1.5c8.5,2,14.3,4.4,21.2,7.2
		c3.5,1.4,7.1,2.9,11.5,4.5C142.1,86.7,150.2,87.8,155.1,85.4z"/>
	<path class="st1" d="M155.1,98.9v7.1c-2.3,0.6-4.8,0.9-7.2,0.9c-4.6,0-9.2-0.9-13.6-2.4c-4.5-1.6-8.1-3.2-11.7-4.6
		c-6.6-2.7-12.2-5-20.2-6.9c-8.6-2-15.3,0-19.7,2.4v-7.4c5.4-2.2,12.5-3.5,21.3-1.5c8.5,2,14.3,4.4,21.2,7.2
		c3.5,1.4,7.1,2.9,11.5,4.5C142.1,100.2,150.2,101.3,155.1,98.9z"/>
	<path class="st1" d="M154.3,112.6v6.7c-4.8,0.9-12.2,1.1-21.5-2.2c-4.4-1.5-8.1-2.9-11.7-4.3c-6.5-2.5-12.6-4.8-21.5-7.2
		c-4.5-1.2-8.2-0.5-10.3,1.9c-0.8,0.9-1.3,2-1.5,3.1s0,2.3,0.5,3.4c1.2,2.6,4.3,4.1,8.6,4.1h20.3v6.5H96.8c-9.9,0-13.5-5.5-14.6-7.8
		c-1-2.2-1.4-4.6-1-7c0.3-2.4,1.4-4.6,3-6.5c1.8-2.1,7.1-6.7,17.2-4c9.3,2.5,15.5,4.9,22.2,7.4c3.5,1.3,7.2,2.7,11.5,4.2
		c7.4,2.6,13.2,2.6,16.7,2.1C152.5,113,153.4,112.8,154.3,112.6z"/>
	<path class="st1" d="M0.2,55v-7c7.6-2.1,15.6-2.3,23.2-0.5c9.4,2.1,17.7,5.3,25.7,8.4c3.3,1.3,6.7,2.6,10,3.8
		c3.2,1.1,5.9,0.7,7.7-1.2c0.9-1,1.5-2.3,1.8-3.6c0.2-1.4,0.1-2.7-0.4-4c-1.2-2.7-4.1-4.2-8.3-4.2H37.8V40h22.3
		c6.9,0,12.1,3,14.4,8.1c1,2.5,1.4,5.2,0.9,7.8c-0.5,2.6-1.7,5.1-3.5,7c-1.2,1.3-2.6,2.3-4.2,3c-1.6,0.7-3.3,1-5.1,1
		c-1.9,0-3.8-0.4-5.5-1c-3.5-1.2-6.9-2.6-10.2-3.8C39,59,31,55.9,22.1,54C14.8,52.3,7.3,52.7,0.2,55z"/>
	<path class="st1" d="M72.6,72V79c-2.3,0.6-4.8,0.9-7.2,0.9c-4.6,0-9.2-0.9-13.6-2.4c-4.5-1.6-8.1-3.2-11.7-4.6
		c-6.6-2.7-12.2-5-20.2-6.9c-8.6-2-15.3,0-19.7,2.4V61c5.4-2.2,12.5-3.5,21.3-1.5c8.5,2,14.3,4.4,21.2,7.2c3.5,1.4,7.1,2.9,11.5,4.5
		C59.6,73.3,67.7,74.3,72.6,72z"/>
	<path class="st1" d="M73.9,85.4v7.1c-2.3,0.6-4.8,0.9-7.2,0.9c-4.6,0-9.2-0.9-13.6-2.4c-4.5-1.6-8.1-3.2-11.7-4.6
		c-6.6-2.7-12.2-5-20.2-6.9c-8.6-2-15.3,0-19.7,2.4v-7.4C6.9,72.2,14,70.9,22.8,73c8.5,2,14.3,4.4,21.2,7.2
		c3.5,1.4,7.1,2.9,11.5,4.5C60.9,86.7,69,87.8,73.9,85.4z"/>
	<path class="st1" d="M73.5,98.5v7.1c-2.3,0.6-4.8,0.9-7.2,0.9c-4.6,0-9.2-0.9-13.6-2.4c-4.5-1.6-8.1-3.2-11.7-4.6
		c-6.6-2.7-12.2-5-20.2-6.9c-8.6-2-15.3,0-19.7,2.4v-7.4c5.4-2.2,12.5-3.5,21.3-1.5c8.5,2,14.3,4.4,21.2,7.2
		c3.5,1.4,7.1,2.9,11.5,4.5C60.5,99.8,68.6,100.8,73.5,98.5z"/>
	<path class="st1" d="M73.5,111.9v7.1c-2.3,0.6-4.8,0.9-7.2,0.9c-4.6,0-9.2-0.9-13.6-2.4c-4.5-1.6-8.1-3.2-11.7-4.6
		c-6.6-2.7-12.2-5-20.2-6.9c-8.6-2-15.3,0-19.7,2.4V101c5.4-2.2,12.5-3.5,21.3-1.5c8.5,2,14.3,4.4,21.2,7.2
		c3.5,1.4,7.1,2.9,11.5,4.5C60.5,113.3,68.6,114.3,73.5,111.9z"/>
	<path class="st1" d="M73.5,125.4v7.1c-2.3,0.6-4.8,0.9-7.2,0.9c-4.6,0-9.2-0.9-13.6-2.4c-4.5-1.6-8.1-3.2-11.7-4.6
		c-6.6-2.7-12.2-5-20.2-6.9c-8.6-2-15.3,0-19.7,2.4v-7.4c5.4-2.2,12.5-3.5,21.3-1.5c8.5,2,14.3,4.4,21.2,7.2
		c3.5,1.4,7.1,2.9,11.5,4.5C60.5,126.7,68.6,127.8,73.5,125.4z"/>
	<path class="st1" d="M73.5,138.9v7.1c-2.3,0.6-4.8,0.9-7.2,0.9c-4.6,0-9.2-0.9-13.6-2.4c-4.5-1.6-8.1-3.2-11.7-4.6
		c-6.6-2.7-12.2-5-20.2-6.9c-8.6-2-15.3,0-19.7,2.4v-7.4c5.4-2.2,12.5-3.5,21.3-1.5c8.5,2,14.3,4.4,21.2,7.2
		c3.5,1.4,7.1,2.9,11.5,4.5C60.5,140.2,68.6,141.2,73.5,138.9z"/>
	<path class="st1" d="M237.2,54.6v-7c-7.6-2.1-15.6-2.3-23.2-0.5c-9.4,2.1-17.7,5.3-25.7,8.4c-3.3,1.3-6.7,2.6-10,3.8
		c-3.2,1.1-5.9,0.7-7.7-1.2c-0.9-1-1.5-2.3-1.8-3.6c-0.2-1.4-0.1-2.7,0.4-4c1.2-2.7,4.1-4.2,8.3-4.2h22.3v-6.6h-22.3
		c-6.9,0-12.1,3-14.4,8.1c-1,2.5-1.4,5.2-0.9,7.8c0.5,2.6,1.7,5.1,3.5,7c1.2,1.3,2.6,2.3,4.2,3c1.6,0.7,3.3,1,5.1,1
		c1.9,0,3.8-0.4,5.5-1c3.5-1.2,6.9-2.6,10.2-3.8c7.8-3,15.8-6.1,24.7-8.1C222.6,51.9,230.1,52.3,237.2,54.6z"/>
	<path class="st1" d="M164.8,71.5v7.1c2.3,0.6,4.8,0.9,7.2,0.9c4.6,0,9.2-0.9,13.6-2.4c4.5-1.6,8.1-3.2,11.7-4.6
		c6.6-2.7,12.2-5,20.2-6.9c8.6-2,15.3,0,19.7,2.4v-7.4c-5.4-2.2-12.5-3.5-21.3-1.5c-8.5,2-14.3,4.4-21.2,7.2
		c-3.5,1.4-7.1,2.9-11.5,4.5C177.8,72.9,169.7,73.9,164.8,71.5z"/>
	<path class="st1" d="M164.8,84.9v6.7c4.8,0.9,12.2,1.1,21.5-2.2c4.4-1.5,8.1-2.9,11.7-4.3c6.5-2.5,12.6-4.8,21.5-7.2
		c4.5-1.2,8.2-0.5,10.3,1.9c0.8,0.9,1.3,2,1.5,3.1c0.2,1.2,0,2.3-0.5,3.4c-1.2,2.6-4.3,4.1-8.6,4.1h-20.3v6.5h20.3
		c9.9,0,13.5-5.5,14.6-7.8c1-2.2,1.4-4.6,1-7c-0.3-2.4-1.4-4.6-3-6.5c-1.8-2.1-7.1-6.7-17.2-4c-9.3,2.5-15.5,4.9-22.2,7.4
		c-3.5,1.3-7.2,2.7-11.5,4.2c-7.4,2.6-13.2,2.6-16.7,2.1C166.5,85.2,165.6,85.1,164.8,84.9z"/>
</g>
</svg>
